<?xml version="1.0" encoding="utf-8"?>
<!-- Generator: Adobe Illustrator 24.1.0, SVG Export Plug-In . SVG Version: 6.00 Build 0)  -->
<svg version="1.2" baseProfile="tiny" id="g-columbia-mobile-img" xmlns="http://www.w3.org/2000/svg" xmlns:xlink="http://www.w3.org/1999/xlink"
	 x="0px" y="0px" viewBox="0 0 320 600" xml:space="preserve">
<g>
	
		<line style="opacity:0.2;" fill="none" stroke="#999999" stroke-width="0.75" stroke-miterlimit="10" x1="281.5" y1="572.547" x2="281.5" y2="40.829"/>
	
		<line style="opacity:0.2;" fill="none" stroke="#999999" stroke-width="0.75" stroke-miterlimit="10" x1="100.639" y1="572.547" x2="100.639" y2="40.829"/>
	
		<line style="opacity:0.2;" fill="none" stroke="#999999" stroke-width="0.75" stroke-miterlimit="10" x1="160.926" y1="572.547" x2="160.926" y2="40.829"/>
	<rect x="109.329" y="187.197" fill="#FFFFFF" width="11.32" height="37.26"/>
	
		<line style="opacity:0.2;" fill="none" stroke="#999999" stroke-width="0.75" stroke-miterlimit="10" x1="221.213" y1="572.547" x2="221.213" y2="40.829"/>
	<rect x="92.815" y="313.788" fill="#FFFFFF" width="11.013" height="55.908"/>
	
		<rect style="opacity:0.4;" x="-43.632" y="350.907" transform="matrix(-3.097181e-08 1 -1 -3.097181e-08 389.045 319.7922)" fill="#BDE1FF" width="156.518" height="7.022"/>
	<rect x="104.526" y="338.239" fill="#FFFFFF" width="11.32" height="37.523"/>
	<polyline fill="#E6E6E6" points="40.36,49.765 40.36,67.143 40.365,84.521 40.389,101.899 40.424,119.276 40.489,136.654 
		40.622,154.018 40.677,171.395 40.786,188.773 40.875,206.151 41.009,223.529 41.337,240.906 41.624,258.284 42.195,275.662 
		42.562,293.04 43.221,310.417 44.496,327.795 47.536,345.173 52.867,362.551 61.76,379.929 71.565,397.306 86.066,414.684 
		103.266,432.062 117.698,449.44 140.001,466.817 157.846,484.195 174.867,501.573 201.167,518.951 219.864,536.328 
		242.787,553.706 268.879,571.757 40.36,571.757 40.36,115.572 	"/>
	<path fill="none" stroke="#79C0F7" stroke-width="0.5" stroke-miterlimit="10" d="M31.934,217.977
		c-9.299,0-15.041,8.978-15.041,17.15"/>
	
		<path fill="#E3DACB" stroke="#E3DACB" stroke-width="5" stroke-linecap="round" stroke-linejoin="round" stroke-miterlimit="10" d="
		M64.449,178.788"/>
	<line fill="none" stroke="#999999" stroke-width="0.75" stroke-miterlimit="10" x1="33" y1="50.115" x2="37.137" y2="50.115"/>
	<line fill="none" stroke="#999999" stroke-width="0.75" stroke-miterlimit="10" x1="33" y1="67.503" x2="37.137" y2="67.503"/>
	<rect x="92.101" y="43.244" fill="#FFFFFF" width="17.077" height="13.958"/>
	<rect x="207.126" y="173.901" fill="#FFFFFF" width="53.352" height="36.259"/>
	<g>
		
			<ellipse transform="matrix(0.6057 -0.7957 0.7957 0.6057 -119.8205 101.8494)" fill="#D13838" cx="42.862" cy="171.831" rx="4.512" ry="4.512"/>
	</g>
	<g>
		<line fill="none" stroke="#D13838" stroke-width="3" stroke-miterlimit="10" x1="43.523" y1="345.712" x2="72.446" y2="345.712"/>
		<g>
			<path fill="#D13838" d="M43.748,350.224c-2.491,0-4.512-2.02-4.512-4.512c0-2.491,2.02-4.512,4.512-4.512
				c2.491,0,4.512,2.02,4.512,4.512C48.26,348.203,46.24,350.224,43.748,350.224z"/>
		</g>
	</g>
	<g>
		<path fill="#F0B9B6" d="M43.797,385.004c-2.491-0.002-4.51-2.024-4.508-4.516c0.002-2.491,2.024-4.51,4.516-4.508
			c2.491,0.002,4.51,2.024,4.508,4.516C48.311,382.988,46.289,385.007,43.797,385.004z"/>
	</g>
	<g>
		<line fill="none" stroke="#D13838" stroke-width="3" stroke-miterlimit="10" x1="43.523" y1="293.548" x2="72.446" y2="293.548"/>
		<g>
			<path fill="#D13838" d="M43.749,298.06c-2.491,0-4.512-2.02-4.512-4.512c0-2.491,2.02-4.512,4.512-4.512
				c2.491,0,4.512,2.02,4.512,4.512C48.26,296.039,46.24,298.06,43.749,298.06z"/>
		</g>
	</g>
	<line fill="none" stroke="#999999" stroke-width="0.75" stroke-miterlimit="10" x1="33" y1="84.891" x2="37.137" y2="84.891"/>
	<line fill="none" stroke="#999999" stroke-width="0.75" stroke-miterlimit="10" x1="33" y1="102.279" x2="37.137" y2="102.279"/>
	<line fill="none" stroke="#999999" stroke-width="0.75" stroke-miterlimit="10" x1="33" y1="119.667" x2="37.137" y2="119.667"/>
	<line fill="none" stroke="#999999" stroke-width="0.75" stroke-miterlimit="10" x1="33" y1="137.055" x2="37.137" y2="137.055"/>
	<line fill="none" stroke="#999999" stroke-width="0.75" stroke-miterlimit="10" x1="33" y1="154.443" x2="37.137" y2="154.443"/>
	<line fill="none" stroke="#999999" stroke-width="0.75" stroke-miterlimit="10" x1="33" y1="171.831" x2="37.137" y2="171.831"/>
	<line fill="none" stroke="#999999" stroke-width="0.75" stroke-miterlimit="10" x1="33" y1="189.219" x2="37.137" y2="189.219"/>
	<line fill="none" stroke="#999999" stroke-width="0.75" stroke-miterlimit="10" x1="33" y1="206.607" x2="37.137" y2="206.607"/>
	<line fill="none" stroke="#999999" stroke-width="0.75" stroke-miterlimit="10" x1="33" y1="223.995" x2="37.137" y2="223.995"/>
	<line fill="none" stroke="#999999" stroke-width="0.75" stroke-miterlimit="10" x1="33" y1="241.383" x2="37.137" y2="241.383"/>
	<line fill="none" stroke="#999999" stroke-width="0.75" stroke-miterlimit="10" x1="33" y1="258.771" x2="37.137" y2="258.771"/>
	<line fill="none" stroke="#999999" stroke-width="0.75" stroke-miterlimit="10" x1="33" y1="502.204" x2="37.137" y2="502.204"/>
	<line fill="none" stroke="#999999" stroke-width="0.75" stroke-miterlimit="10" x1="33" y1="519.593" x2="37.137" y2="519.593"/>
	<line fill="none" stroke="#999999" stroke-width="0.75" stroke-miterlimit="10" x1="33" y1="536.981" x2="37.137" y2="536.981"/>
	<line fill="none" stroke="#999999" stroke-width="0.75" stroke-miterlimit="10" x1="33" y1="554.369" x2="37.137" y2="554.369"/>
	<line fill="none" stroke="#999999" stroke-width="0.75" stroke-miterlimit="10" x1="33" y1="571.757" x2="37.137" y2="571.757"/>
	<rect x="273.777" y="175.286" fill="#FFFFFF" width="21.89" height="34.874"/>
	<rect x="92.101" y="183.467" fill="#FFFFFF" width="17.077" height="43.085"/>
	<path fill="none" stroke="#79C0F7" stroke-width="0.5" stroke-miterlimit="10" d="M31.855,479.098
		c-9.581,0-15.498,9.17-15.498,17.516"/>
	<g>
		<line fill="none" stroke="#D13838" stroke-width="3" stroke-miterlimit="10" x1="42.637" y1="206.405" x2="72.446" y2="206.405"/>
		<g>
			
				<ellipse transform="matrix(0.5082 -0.8612 0.8612 0.5082 -156.6819 138.4174)" fill="#D13838" cx="42.862" cy="206.405" rx="4.512" ry="4.512"/>
		</g>
	</g>
	<g>
		
			<line fill="none" stroke="#F0B9B6" stroke-width="3" stroke-miterlimit="10" stroke-dasharray="8,8" x1="132.778" y1="191.567" x2="210.783" y2="191.567"/>
		<g>
			<path fill="#F0B9B6" d="M132.784,191.68c-0.062,0-0.113-0.051-0.113-0.113c0-0.062,0.051-0.113,0.113-0.113
				s0.113,0.051,0.113,0.113C132.896,191.63,132.846,191.68,132.784,191.68z"/>
		</g>
	</g>
	<rect x="213.587" y="235.127" fill="#FFFFFF" width="13.253" height="51.861"/>
	<g>
		
			<line fill="none" stroke="#F0B9B6" stroke-width="3" stroke-miterlimit="10" stroke-dasharray="8,8" x1="43.523" y1="242.471" x2="168.665" y2="242.435"/>
		<g>
			<path fill="#F0B9B6" d="M43.75,246.983c-2.491,0.001-4.512-2.019-4.513-4.51c-0.001-2.491,2.019-4.512,4.51-4.513
				c2.491-0.001,4.512,2.019,4.513,4.51C48.261,244.961,46.241,246.982,43.75,246.983z"/>
		</g>
	</g>
	
		<rect style="opacity:0.4;" x="17.605" y="203.463" transform="matrix(1.012493e-06 1 -1 1.012493e-06 241.6003 171.6144)" fill="#44A6E0" width="34.776" height="6.29"/>
	
		<line fill="none" stroke="#999999" stroke-width="0.75" stroke-miterlimit="10" x1="32.924" y1="432.652" x2="37.062" y2="432.652"/>
	<line fill="none" stroke="#999999" stroke-width="0.75" stroke-miterlimit="10" x1="32.924" y1="450.04" x2="37.062" y2="450.04"/>
	
		<line fill="none" stroke="#999999" stroke-width="0.75" stroke-miterlimit="10" x1="32.924" y1="467.428" x2="37.062" y2="467.428"/>
	
		<line fill="none" stroke="#999999" stroke-width="0.75" stroke-miterlimit="10" x1="32.924" y1="484.816" x2="37.062" y2="484.816"/>
	
		<line fill="none" stroke="#999999" stroke-width="0.75" stroke-miterlimit="10" x1="32.924" y1="502.205" x2="37.062" y2="502.205"/>
	
		<rect style="opacity:0.4;" x="8.891" y="455.608" transform="matrix(4.217761e-07 1 -1 4.217761e-07 493.7457 423.7598)" fill="#44A6E0" width="52.204" height="6.29"/>
	<rect x="152.388" y="199.377" fill="#FFFFFF" width="17.077" height="26"/>
	
		<line fill="none" stroke="#999999" stroke-width="0.75" stroke-miterlimit="10" x1="32.924" y1="276.138" x2="37.062" y2="276.138"/>
	<line fill="none" stroke="#999999" stroke-width="0.75" stroke-miterlimit="10" x1="32.962" y1="293.504" x2="37.1" y2="293.504"/>
	<rect x="138.989" y="329.489" fill="#FFFFFF" width="53.352" height="27.512"/>
	<rect x="109.329" y="247.192" fill="#FFFFFF" width="11.32" height="28.156"/>
	<rect x="73.963" y="285.046" fill="#FFFFFF" width="53.352" height="15.597"/>
	<line fill="none" stroke="#999999" stroke-width="0.75" stroke-miterlimit="10" x1="32.962" y1="415.286" x2="37.1" y2="415.286"/>
	<rect x="159.011" y="437.997" fill="#FFFFFF" width="13.491" height="38.002"/>
	<path fill="none" stroke="#F0B9B6" stroke-width="3" stroke-miterlimit="10" stroke-dasharray="8" d="M74.228,430.839
		c-20.261-0.733-31.771-28.898-30.859-54.12"/>
	<path fill="none" stroke="#D13838" stroke-width="3" stroke-miterlimit="10" d="M110.709,101.217
		c-42.207,0-68.269,37.525-68.269,71.677"/>
</g>
<style>
#g-columbia-mobile-img rect, #g-columbia-mobile-img circle, #g-columbia-mobile-img path, #g-columbia-mobile-img line, #g-columbia-mobile-img polyline { vector-effect: non-scaling-stroke; }
</style>
</svg>

