<?xml version="1.0" encoding="utf-8"?>
<!-- Generator: Adobe Illustrator 24.1.0, SVG Export Plug-In . SVG Version: 6.00 Build 0)  -->
<svg version="1.2" baseProfile="tiny" id="g-columbia-desktop-img" xmlns="http://www.w3.org/2000/svg" xmlns:xlink="http://www.w3.org/1999/xlink"
	 x="0px" y="0px" viewBox="0 0 700 750" xml:space="preserve">
<g>
	
		<line style="opacity:0.2;" fill="none" stroke="#999999" stroke-width="0.75" stroke-miterlimit="10" x1="612.415" y1="721.849" x2="612.415" y2="48.255"/>
	
		<line style="opacity:0.2;" fill="none" stroke="#999999" stroke-width="0.75" stroke-miterlimit="10" x1="227.18" y1="721.849" x2="227.18" y2="48.255"/>
	<rect x="591.53" y="705.923" fill="#FFFFFF" width="56.457" height="20.753"/>
	
		<line style="opacity:0.2;" fill="none" stroke="#999999" stroke-width="0.75" stroke-miterlimit="10" x1="355.592" y1="721.849" x2="355.592" y2="48.255"/>
	<rect x="245.688" y="233.678" fill="#FFFFFF" width="24.111" height="47.202"/>
	
		<line style="opacity:0.2;" fill="none" stroke="#999999" stroke-width="0.75" stroke-miterlimit="10" x1="484.003" y1="721.849" x2="484.003" y2="48.255"/>
	
		<rect style="opacity:0.4;" x="-11.788" y="438.82" transform="matrix(-4.664108e-08 1 -1 -4.664108e-08 532.8714 358.1664)" fill="#BDE1FF" width="198.281" height="13.397"/>
	<rect x="235.459" y="425.022" fill="#FFFFFF" width="24.111" height="47.535"/>
	<polyline fill="#E6E6E6" points="98.784,59.576 98.784,81.591 98.794,103.605 98.847,125.62 98.921,147.634 99.058,169.649 
		99.344,191.645 99.46,213.66 99.692,235.675 99.882,257.689 100.168,279.704 100.865,301.718 101.478,323.733 102.692,345.748 
		103.474,367.762 104.879,389.777 107.594,411.791 114.07,433.806 125.426,455.821 144.367,477.835 165.251,499.85 196.14,521.864 
		232.775,543.879 263.515,565.894 311.021,587.908 349.029,609.923 385.284,631.938 441.304,653.952 481.13,675.967 
		529.955,697.981 585.531,720.848 98.784,720.848 98.784,142.941 	"/>
	<path fill="none" stroke="#79C0F7" stroke-width="0.75" stroke-miterlimit="10" d="M80.836,272.671
		c-12.505,0-20.227,8.595-20.227,16.417"/>
	
		<path fill="#E3DACB" stroke="#E3DACB" stroke-width="5" stroke-linecap="round" stroke-linejoin="round" stroke-miterlimit="10" d="
		M150.095,223.025"/>
	<line fill="none" stroke="#999999" stroke-width="0.75" stroke-miterlimit="10" x1="83.107" y1="60.018" x2="91.92" y2="60.018"/>
	<line fill="none" stroke="#999999" stroke-width="0.75" stroke-miterlimit="10" x1="83.107" y1="82.046" x2="91.92" y2="82.046"/>
	
		<line fill="none" stroke="#999999" stroke-width="0.75" stroke-miterlimit="10" x1="83.107" y1="104.074" x2="91.92" y2="104.074"/>
	
		<line fill="none" stroke="#999999" stroke-width="0.75" stroke-miterlimit="10" x1="83.107" y1="126.101" x2="91.92" y2="126.101"/>
	
		<line fill="none" stroke="#999999" stroke-width="0.75" stroke-miterlimit="10" x1="83.107" y1="148.129" x2="91.921" y2="148.129"/>
	
		<line fill="none" stroke="#999999" stroke-width="0.75" stroke-miterlimit="10" x1="83.107" y1="170.157" x2="91.921" y2="170.157"/>
	
		<line fill="none" stroke="#999999" stroke-width="0.75" stroke-miterlimit="10" x1="83.107" y1="192.184" x2="91.921" y2="192.184"/>
	
		<line fill="none" stroke="#999999" stroke-width="0.75" stroke-miterlimit="10" x1="83.107" y1="214.212" x2="91.921" y2="214.212"/>
	<line fill="none" stroke="#999999" stroke-width="0.75" stroke-miterlimit="10" x1="83.107" y1="236.24" x2="91.921" y2="236.24"/>
	
		<line fill="none" stroke="#999999" stroke-width="0.75" stroke-miterlimit="10" x1="83.107" y1="258.267" x2="91.921" y2="258.267"/>
	
		<line fill="none" stroke="#999999" stroke-width="0.75" stroke-miterlimit="10" x1="83.107" y1="280.295" x2="91.921" y2="280.295"/>
	
		<line fill="none" stroke="#999999" stroke-width="0.75" stroke-miterlimit="10" x1="83.107" y1="302.323" x2="91.921" y2="302.323"/>
	<line fill="none" stroke="#999999" stroke-width="0.75" stroke-miterlimit="10" x1="83.107" y1="324.35" x2="91.921" y2="324.35"/>
	
		<line fill="none" stroke="#999999" stroke-width="0.75" stroke-miterlimit="10" x1="83.107" y1="632.738" x2="91.921" y2="632.738"/>
	
		<line fill="none" stroke="#999999" stroke-width="0.75" stroke-miterlimit="10" x1="83.107" y1="654.765" x2="91.921" y2="654.765"/>
	
		<line fill="none" stroke="#999999" stroke-width="0.75" stroke-miterlimit="10" x1="83.107" y1="676.793" x2="91.921" y2="676.793"/>
	
		<line fill="none" stroke="#999999" stroke-width="0.75" stroke-miterlimit="10" x1="83.107" y1="698.821" x2="91.921" y2="698.821"/>
	
		<line fill="none" stroke="#999999" stroke-width="0.75" stroke-miterlimit="10" x1="83.107" y1="720.848" x2="91.921" y2="720.848"/>
	<path fill="none" stroke="#79C0F7" stroke-width="0.75" stroke-miterlimit="10" d="M80.669,603.465
		c-12.402,0-20.06,11.617-20.06,22.189"/>
	
		<rect style="opacity:0.4;" x="65.325" y="251.569" transform="matrix(1.702376e-06 1 -1 1.702376e-06 345.62 170.9146)" fill="#44A6E0" width="44.055" height="13.397"/>
	
		<line fill="none" stroke="#999999" stroke-width="0.75" stroke-miterlimit="10" x1="82.946" y1="544.627" x2="91.759" y2="544.627"/>
	
		<line fill="none" stroke="#999999" stroke-width="0.75" stroke-miterlimit="10" x1="82.946" y1="566.655" x2="91.759" y2="566.655"/>
	
		<line fill="none" stroke="#999999" stroke-width="0.75" stroke-miterlimit="10" x1="82.946" y1="588.682" x2="91.759" y2="588.682"/>
	<line fill="none" stroke="#999999" stroke-width="0.75" stroke-miterlimit="10" x1="82.946" y1="610.71" x2="91.759" y2="610.71"/>
	
		<line fill="none" stroke="#999999" stroke-width="0.75" stroke-miterlimit="10" x1="82.946" y1="632.738" x2="91.759" y2="632.738"/>
	
		<rect style="opacity:0.4;" x="54.286" y="570.994" transform="matrix(7.091620e-07 1 -1 7.091620e-07 665.0445 490.3391)" fill="#44A6E0" width="66.133" height="13.397"/>
	<line fill="none" stroke="#999999" stroke-width="0.75" stroke-miterlimit="10" x1="82.946" y1="346.35" x2="91.759" y2="346.35"/>
	<line fill="none" stroke="#999999" stroke-width="0.75" stroke-miterlimit="10" x1="83.026" y1="368.35" x2="91.84" y2="368.35"/>
	<rect x="245.688" y="309.681" fill="#FFFFFF" width="24.111" height="35.669"/>
	
		<line fill="none" stroke="#999999" stroke-width="0.75" stroke-miterlimit="10" x1="83.026" y1="522.627" x2="91.84" y2="522.627"/>
	<g class="Scrolly4" id="March20_4_">
		<path fill="none" stroke="#F89E99" stroke-width="1.33" stroke-miterlimit="10" stroke-dasharray="8" d="M167.297,549.221
			c-42.207,0-68.269-37.525-68.269-71.677"/>
		<g>
			
				<line fill="none" stroke="#F0B9B6" stroke-width="3" stroke-miterlimit="10" stroke-dasharray="8,8" x1="98.791" y1="479.547" x2="99.028" y2="479.547"/>
			<g>
				<path fill="#F0B9B6" d="M99.014,484.059c-2.491-0.001-4.511-2.023-4.509-4.514c0.001-2.491,2.023-4.511,4.514-4.509
					c2.491,0.001,4.511,2.023,4.509,4.514C103.527,482.041,101.506,484.06,99.014,484.059z"/>
			</g>
		</g>
		<g class="Scrolly4" id="March20_5_">
			
				<line fill="none" stroke="#F89E99" stroke-width="3.5" stroke-miterlimit="10" x1="98.392" y1="479.547" x2="100.101" y2="479.547"/>
			<g>
				<path fill="#F89E99" d="M98.655,484.811c-2.907,0-5.264-2.357-5.264-5.264c0-2.907,2.357-5.264,5.264-5.264
					c2.907,0,5.264,2.357,5.264,5.264C103.919,482.454,101.562,484.811,98.655,484.811z"/>
			</g>
		</g>
	</g>
	<g class="Scrolly3" id="March15_5_">
		<g>
			
				<line fill="none" stroke="#D13838" stroke-width="1.33" stroke-miterlimit="10" x1="98.292" y1="368.406" x2="167.128" y2="368.406"/>
			<g>
				<path fill="#D13838" d="M98.392,370.407c-1.105,0-2-0.896-2-2c0-1.105,0.896-2,2-2c1.104,0,2,0.896,2,2
					C100.392,369.511,99.497,370.407,98.392,370.407z"/>
			</g>
			<circle class="anim3" id="back" cx="14.28%" cy="49.1%" r="4.512" stroke-width="0.333"
								fill="#D13838" d="M99.016,218.724c-2.491,0-4.512-2.02-4.512-4.512c0-2.491,2.02-4.512,4.512-4.512
					c2.491,0,4.512,2.02,4.512,4.512C103.527,216.703,101.507,218.723,99.016,218.724z" />
		</g>
		<g class="Scrolly3" id="March15_6_">
			
				<line fill="none" stroke="#D13838" stroke-width="3.5" stroke-miterlimit="10" x1="98.977" y1="368.406" x2="100.686" y2="368.406"/>
			<g>
				<path fill="#D13838" d="M99.24,373.67c-2.907,0-5.264-2.357-5.264-5.264s2.357-5.264,5.264-5.264
					c2.907,0,5.264,2.357,5.264,5.264S102.146,373.67,99.24,373.67z"/>
			</g>
		</g>
	</g>
	<g class="Scrolly2" id="March12_2_">
		<rect x="338.457" y="293.396" fill="#FFFFFF" width="23.457" height="48.476"/>
		<g>
			
				<line fill="none" stroke="#F89E99" stroke-width="1.33" stroke-miterlimit="10" stroke-dasharray="8,8" x1="99.293" y1="302.69" x2="339.134" y2="302.655"/>
			<g>
				<path fill="#F89E99" d="M99.393,304.69c-1.105,0-2-0.895-2-2c0-1.105,0.895-2,2-2s2,0.895,2,2
					C101.393,303.794,100.497,304.69,99.393,304.69z"/>
			</g>
		</g>
		<g class="Scrolly2" id="March12_6_">
			
				<line fill="none" stroke="#F89E99" stroke-width="3.5" stroke-miterlimit="10" x1="98.977" y1="302.69" x2="100.686" y2="302.69"/>
			<g>
				<path fill="#F89E99" d="M99.24,307.953c-2.907,0-5.264-2.357-5.264-5.264s2.357-5.264,5.264-5.264
					c2.907,0,5.264,2.357,5.264,5.264S102.146,307.953,99.24,307.953z"/>
			</g>
		</g>
	</g>
	<g class="Scrolly1" id="March10_5_">
		<rect x="412.857" y="244.674" fill="#FFFFFF" width="113.64" height="33.686"/>
		<rect x="203.997" y="217.943" fill="#FFFFFF" width="36.375" height="68.012"/>
		<g>
			
				<line fill="none" stroke="#D13838" stroke-width="1.33" stroke-miterlimit="10" x1="98.805" y1="258.403" x2="169.528" y2="258.403"/>
			<g>
				<path fill="#D13838" d="M98.905,260.403c-1.105,0-2-0.896-2-2c0-1.105,0.896-2,2-2s2,0.896,2,2S100.009,260.403,98.905,260.403z
					"/>
			</g>
		</g>
		<g>
			
				<line fill="none" stroke="#F89E99" stroke-width="1.33" stroke-miterlimit="10" stroke-dasharray="8,8" x1="335.776" y1="260.289" x2="374.4" y2="260.289"/>
			<g>
				<path fill="#F89E99" d="M335.779,260.339c-0.028,0-0.05-0.022-0.05-0.05c0-0.028,0.022-0.05,0.05-0.05
					c0.028,0,0.05,0.022,0.05,0.05C335.829,260.316,335.806,260.339,335.779,260.339z"/>
			</g>
		</g>
		<g class="Scrolly1" id="March10_6_">
			
				<line fill="none" stroke="#D13838" stroke-width="3.5" stroke-miterlimit="10" x1="98.977" y1="258.267" x2="100.686" y2="258.267"/>
			<g>
				<path fill="#D13838" d="M99.24,263.531c-2.907,0-5.264-2.357-5.264-5.264c0-2.907,2.357-5.264,5.264-5.264
					c2.907,0,5.264,2.357,5.264,5.264S102.146,263.531,99.24,263.531z"/>
			</g>
		</g>
	</g>
	<path fill="none" stroke="#D13838" stroke-width="1.33" stroke-miterlimit="10" d="M166.675,142.697
		c-42.207,0-68.269,37.525-68.269,71.676"/>
	<g class="Scrolly0" id="March8">
		
			<line fill="none" stroke="#D13838" stroke-width="3.5" stroke-miterlimit="10" x1="99.052" y1="214.212" x2="100.761" y2="214.212"/>
		<g>
			<path fill="#D13838" d="M99.315,219.475c-2.907,0-5.264-2.357-5.264-5.264c0-2.907,2.357-5.264,5.264-5.264
				c2.907,0,5.264,2.357,5.264,5.264C104.578,217.118,102.221,219.475,99.315,219.475z"/>
				<circle class="anim0" id="back" cx="14.15%" cy="28.6%" r="4.512" stroke-width="0.333"
								fill="#D13838" d="M99.016,218.724c-2.491,0-4.512-2.02-4.512-4.512c0-2.491,2.02-4.512,4.512-4.512
					c2.491,0,4.512,2.02,4.512,4.512C103.527,216.703,101.507,218.723,99.016,218.724z" />
		</g>
	</g>
</g>
<style>
#g-columbia-desktop-img rect, #g-columbia-desktop-img circle, #g-columbia-desktop-img path, #g-columbia-desktop-img line, #g-columbia-desktop-img polyline { vector-effect: non-scaling-stroke; }
</style>
</svg>

