<?xml version="1.0" encoding="utf-8"?>
<!-- Generator: Adobe Illustrator 23.1.1, SVG Export Plug-In . SVG Version: 6.00 Build 0)  -->
<svg version="1.2" baseProfile="tiny" id="g-cornell-desktop-img" xmlns="http://www.w3.org/2000/svg" xmlns:xlink="http://www.w3.org/1999/xlink"
	 x="0px" y="0px" viewBox="0 0 700 750" xml:space="preserve">
<g>
	
		<line style="opacity:0.2;" fill="none" stroke="#999999" stroke-width="0.75" stroke-miterlimit="10" x1="366.326" y1="718.848" x2="366.326" y2="45.254"/>
	
		<line style="opacity:0.2;" fill="none" stroke="#999999" stroke-width="0.75" stroke-miterlimit="10" x1="623.149" y1="718.848" x2="623.149" y2="45.254"/>
	
		<line style="opacity:0.2;" fill="none" stroke="#999999" stroke-width="0.75" stroke-miterlimit="10" x1="237.914" y1="718.848" x2="237.914" y2="45.254"/>
	<rect x="602.264" y="702.922" fill="#FFFFFF" width="56.457" height="20.753"/>
	<rect x="256.423" y="230.677" fill="#FFFFFF" width="24.111" height="47.202"/>
	
		<line style="opacity:0.2;" fill="none" stroke="#999999" stroke-width="0.75" stroke-miterlimit="10" x1="494.737" y1="718.848" x2="494.737" y2="45.254"/>
	<rect x="224.249" y="442.052" fill="#FFFFFF" width="33.751" height="20.948"/>
	
		<rect style="opacity:0.4;" x="65.365" y="678.023" transform="matrix(-1.431136e-07 1 -1 -1.431136e-07 783.0229 586.6353)" fill="#BDE1FF" width="65.658" height="13.612"/>
	<polyline fill="#E6E6E6" points="109.518,56.575 109.518,78.59 109.528,100.604 109.581,122.619 109.655,144.633 109.793,166.648 
		110.078,188.644 110.194,210.659 110.426,232.674 110.617,254.688 110.902,276.703 111.599,298.717 112.212,320.732 
		113.426,342.747 114.208,364.761 115.613,386.776 118.328,408.79 124.804,430.805 136.16,452.82 155.101,474.834 175.985,496.849 
		206.874,518.864 243.509,540.878 274.25,562.893 321.755,584.907 359.763,606.922 396.018,628.937 452.038,650.951 
		491.864,672.966 540.689,694.98 596.266,717.847 109.518,717.847 109.518,139.94 	"/>
	
		<path fill="#E3DACB" stroke="#E3DACB" stroke-width="5" stroke-linecap="round" stroke-linejoin="round" stroke-miterlimit="10" d="
		M160.829,220.024"/>
	
		<line fill="none" stroke="#999999" stroke-width="0.75" stroke-miterlimit="10" x1="93.841" y1="57.017" x2="102.655" y2="57.017"/>
	
		<line fill="none" stroke="#999999" stroke-width="0.75" stroke-miterlimit="10" x1="93.841" y1="79.045" x2="102.655" y2="79.045"/>
	<rect x="349.191" y="241.281" fill="#FFFFFF" width="113.64" height="33.686"/>
	<g>
		
			<line fill="none" stroke="#F89E99" stroke-width="1.33" stroke-miterlimit="10" stroke-dasharray="8,8" x1="110.256" y1="452.488" x2="170.343" y2="452.487"/>
		<g>
			<path fill="#F89E99" d="M110.431,455.988c-1.933,0-3.5-1.567-3.5-3.5s1.567-3.5,3.5-3.5c1.933,0,3.5,1.567,3.5,3.5
				C113.931,454.421,112.364,455.988,110.431,455.988z"/>
		</g>
	</g>
	
		<line fill="none" stroke="#999999" stroke-width="0.75" stroke-miterlimit="10" x1="93.841" y1="101.073" x2="102.655" y2="101.073"/>
	<line fill="none" stroke="#999999" stroke-width="0.75" stroke-miterlimit="10" x1="93.841" y1="123.1" x2="102.655" y2="123.1"/>
	
		<line fill="none" stroke="#999999" stroke-width="0.75" stroke-miterlimit="10" x1="93.841" y1="145.128" x2="102.655" y2="145.128"/>
	
		<line fill="none" stroke="#999999" stroke-width="0.75" stroke-miterlimit="10" x1="93.841" y1="167.156" x2="102.655" y2="167.156"/>
	
		<line fill="none" stroke="#999999" stroke-width="0.75" stroke-miterlimit="10" x1="93.841" y1="189.183" x2="102.655" y2="189.183"/>
	
		<line fill="none" stroke="#999999" stroke-width="0.75" stroke-miterlimit="10" x1="93.841" y1="211.211" x2="102.655" y2="211.211"/>
	
		<line fill="none" stroke="#999999" stroke-width="0.75" stroke-miterlimit="10" x1="93.841" y1="233.239" x2="102.655" y2="233.239"/>
	
		<line fill="none" stroke="#999999" stroke-width="0.75" stroke-miterlimit="10" x1="93.841" y1="255.266" x2="102.655" y2="255.266"/>
	
		<line fill="none" stroke="#999999" stroke-width="0.75" stroke-miterlimit="10" x1="93.841" y1="277.294" x2="102.655" y2="277.294"/>
	
		<line fill="none" stroke="#999999" stroke-width="0.75" stroke-miterlimit="10" x1="93.841" y1="299.322" x2="102.655" y2="299.322"/>
	
		<line fill="none" stroke="#999999" stroke-width="0.75" stroke-miterlimit="10" x1="93.841" y1="321.349" x2="102.655" y2="321.349"/>
	
		<line fill="none" stroke="#999999" stroke-width="0.75" stroke-miterlimit="10" x1="93.841" y1="629.737" x2="102.655" y2="629.737"/>
	
		<line fill="none" stroke="#999999" stroke-width="0.75" stroke-miterlimit="10" x1="93.841" y1="651.764" x2="102.655" y2="651.764"/>
	
		<line fill="none" stroke="#999999" stroke-width="0.75" stroke-miterlimit="10" x1="93.841" y1="673.792" x2="102.655" y2="673.792"/>
	
		<line fill="none" stroke="#999999" stroke-width="0.75" stroke-miterlimit="10" x1="93.841" y1="695.82" x2="102.655" y2="695.82"/>
	
		<line fill="none" stroke="#999999" stroke-width="0.75" stroke-miterlimit="10" x1="93.841" y1="717.847" x2="102.655" y2="717.847"/>
	<rect x="211" y="215" fill="#FFFFFF" width="46.706" height="73.561"/>
	<path fill="none" stroke="#79C0F7" stroke-width="0.75" stroke-miterlimit="10" d="M91.403,600.464
		c-12.402,0-20.06,11.617-20.06,22.189"/>
	<g>
		
			<line fill="none" stroke="#F89E99" stroke-width="1.33" stroke-miterlimit="10" stroke-dasharray="8,8" x1="111.564" y1="255.01" x2="170.418" y2="255.01"/>
		<g>
			<path fill="#F89E99" d="M111.739,258.51c-1.933,0-3.5-1.567-3.5-3.5c0-1.933,1.567-3.5,3.5-3.5c1.933,0,3.5,1.567,3.5,3.5
				C115.239,256.943,113.672,258.51,111.739,258.51z"/>
		</g>
	</g>
	
		<rect style="opacity:0.4;" x="-67.294" y="479.921" transform="matrix(2.267451e-07 1 -1 2.267451e-07 584.706 388.5329)" fill="#44A6E0" width="330.761" height="13.397"/>
	
		<line fill="none" stroke="#999999" stroke-width="0.75" stroke-miterlimit="10" x1="93.68" y1="541.626" x2="102.493" y2="541.626"/>
	
		<line fill="none" stroke="#999999" stroke-width="0.75" stroke-miterlimit="10" x1="93.68" y1="563.654" x2="102.493" y2="563.654"/>
	
		<line fill="none" stroke="#999999" stroke-width="0.75" stroke-miterlimit="10" x1="93.68" y1="585.681" x2="102.493" y2="585.681"/>
	
		<line fill="none" stroke="#999999" stroke-width="0.75" stroke-miterlimit="10" x1="93.68" y1="607.709" x2="102.493" y2="607.709"/>
	
		<line fill="none" stroke="#999999" stroke-width="0.75" stroke-miterlimit="10" x1="93.68" y1="629.737" x2="102.493" y2="629.737"/>
	
		<line fill="none" stroke="#999999" stroke-width="0.75" stroke-miterlimit="10" x1="93.68" y1="343.349" x2="102.493" y2="343.349"/>
	
		<line fill="none" stroke="#999999" stroke-width="0.75" stroke-miterlimit="10" x1="93.761" y1="365.349" x2="102.574" y2="365.349"/>
	<rect x="225.423" y="310.68" fill="#FFFFFF" width="24.111" height="35.669"/>
	
		<line fill="none" stroke="#999999" stroke-width="0.75" stroke-miterlimit="10" x1="93.761" y1="519.626" x2="102.574" y2="519.626"/>
	<g>
		<path fill="none" stroke="#D13838" stroke-width="1.33" stroke-miterlimit="10" d="M179.031,542.22
			c-40.842,0-66.566-35.136-68.188-68.353"/>
		<g>
			<path fill="#D13838" d="M114.423,473.876c-0.091-1.931-1.73-3.423-3.661-3.332c-1.931,0.091-3.423,1.73-3.332,3.661
				c0.091,1.931,1.73,3.423,3.661,3.332C113.022,477.446,114.514,475.806,114.423,473.876z"/>
		</g>
	</g>
	<rect x="344.598" y="442" fill="#FFFFFF" width="23.751" height="21"/>
	
		<line fill="none" stroke="#999999" stroke-width="0.75" stroke-miterlimit="10" x1="94.059" y1="519.44" x2="102.873" y2="519.44"/>
	<rect x="359" y="310" fill="#FFFFFF" width="15" height="36"/>
	
		<line fill="none" stroke="#999999" stroke-width="0.75" stroke-miterlimit="10" x1="93.898" y1="431.33" x2="102.711" y2="431.33"/>
	
		<line fill="none" stroke="#999999" stroke-width="0.75" stroke-miterlimit="10" x1="93.898" y1="453.357" x2="102.711" y2="453.357"/>
	
		<line fill="none" stroke="#999999" stroke-width="0.75" stroke-miterlimit="10" x1="93.898" y1="475.385" x2="102.711" y2="475.385"/>
	
		<line fill="none" stroke="#999999" stroke-width="0.75" stroke-miterlimit="10" x1="93.898" y1="497.413" x2="102.711" y2="497.413"/>
	
		<line fill="none" stroke="#999999" stroke-width="0.75" stroke-miterlimit="10" x1="94.185" y1="387.057" x2="102.998" y2="387.057"/>
	
		<line fill="none" stroke="#999999" stroke-width="0.75" stroke-miterlimit="10" x1="94.185" y1="409.085" x2="102.998" y2="409.085"/>
	<g>
		
			<line fill="none" stroke="#F89E99" stroke-width="1.33" stroke-miterlimit="10" stroke-dasharray="8,8" x1="111.146" y1="320.791" x2="170" y2="320.791"/>
		<g>
			<path fill="#F89E99" d="M111.321,324.291c-1.933,0-3.5-1.567-3.5-3.5c0-1.933,1.567-3.5,3.5-3.5c1.933,0,3.5,1.567,3.5,3.5
				C114.821,322.724,113.254,324.291,111.321,324.291z"/>
		</g>
	</g>
	
		<line fill="none" stroke="#F89E99" stroke-width="1.33" stroke-miterlimit="10" stroke-dasharray="8" x1="253" y1="541.5" x2="342" y2="541.499"/>
	<rect x="363" y="536" fill="#FFFFFF" width="17" height="30"/>
	<g>
		<path fill="none" stroke="#D13838" stroke-width="1.33" stroke-miterlimit="10" d="M180,673
			c-40.149,0-65.685,22.635-68.065,44.431"/>
		<g>
			<path fill="#D13838" d="M108.479,717.037c-0.121,1.929,1.345,3.592,3.274,3.713s3.592-1.345,3.713-3.274
				c0.121-1.929-1.345-3.592-3.274-3.713C110.262,713.642,108.6,715.108,108.479,717.037z"/>
		</g>
	</g>
	<path fill="none" stroke="#2F7099" stroke-width="0.75" stroke-miterlimit="10" d="M91.634,705.089
		c-12.402,0-20.06,7.283-20.06,13.911"/>
	<rect x="343.495" y="234.197" fill="#FFFFFF" width="46.706" height="51.803"/>
	<rect x="488" y="536" fill="#FFFFFF" width="17" height="30"/>
</g>
<style>
#g-cornell-desktop-img rect, #g-cornell-desktop-img circle, #g-cornell-desktop-img path, #g-cornell-desktop-img line, #g-cornell-desktop-img polyline { vector-effect: non-scaling-stroke; }
</style>
</svg>

