<?xml version="1.0" encoding="utf-8"?>
<!-- Generator: Adobe Illustrator 23.1.1, SVG Export Plug-In . SVG Version: 6.00 Build 0)  -->
<svg version="1.2" baseProfile="tiny" id="g-cornell-mobile-img" xmlns="http://www.w3.org/2000/svg" xmlns:xlink="http://www.w3.org/1999/xlink"
	 x="0px" y="0px" viewBox="0 0 320 600" xml:space="preserve">
<g>
	
		<line style="opacity:0.2;" fill="none" stroke="#999999" stroke-width="0.75" stroke-miterlimit="10" x1="288.235" y1="573.546" x2="288.235" y2="41.828"/>
	
		<line style="opacity:0.2;" fill="none" stroke="#999999" stroke-width="0.75" stroke-miterlimit="10" x1="107.373" y1="573.546" x2="107.373" y2="41.828"/>
	
		<line style="opacity:0.2;" fill="none" stroke="#999999" stroke-width="0.75" stroke-miterlimit="10" x1="167.661" y1="573.546" x2="167.661" y2="41.828"/>
	
		<line style="opacity:0.2;" fill="none" stroke="#999999" stroke-width="0.75" stroke-miterlimit="10" x1="227.948" y1="573.546" x2="227.948" y2="41.828"/>
	<rect x="81.723" y="371.488" fill="#FFFFFF" width="210.277" height="13.512"/>
	<polyline fill="#E6E6E6" points="47.094,50.765 47.094,68.142 47.099,85.52 47.123,102.898 47.158,120.276 47.223,137.653 
		47.357,155.017 47.411,172.394 47.52,189.772 47.61,207.15 47.743,224.528 48.071,241.905 48.358,259.283 48.929,276.661 
		49.296,294.039 49.955,311.417 51.23,328.794 54.27,346.172 59.602,363.55 68.494,380.928 78.299,398.305 92.801,415.683 
		110,433.061 124.432,450.439 146.735,467.816 164.58,485.194 181.601,502.572 207.901,519.95 226.598,537.327 249.521,554.705 
		275.613,572.756 47.094,572.756 47.094,116.571 	"/>
	<rect x="82.321" y="269" fill="#FFFFFF" width="166.679" height="28"/>
	
		<line fill="none" stroke="#999999" stroke-width="0.75" stroke-miterlimit="10" x1="39.701" y1="416.218" x2="43.839" y2="416.218"/>
	<path fill="none" stroke="#2F7099" stroke-width="0.5" stroke-miterlimit="10" d="M38.25,568.992
		c-7.236,0-11.704,4.721-11.704,9.019"/>
	<rect x="116.063" y="188.196" fill="#FFFFFF" width="11.32" height="37.26"/>
	<rect x="99.549" y="354.787" fill="#FFFFFF" width="11.013" height="30.213"/>
	
		<rect style="opacity:0.4;" x="15.453" y="544.128" transform="matrix(-8.412024e-08 1 -1 -8.412024e-08 589.129 505.5465)" fill="#BDE1FF" width="52.676" height="6.419"/>
	<rect x="111.26" y="339.238" fill="#FFFFFF" width="11.32" height="37.523"/>
	<path fill="none" stroke="#79C0F7" stroke-width="0.5" stroke-miterlimit="10" d="M38.668,218.976"/>
	
		<path fill="#E3DACB" stroke="#E3DACB" stroke-width="5" stroke-linecap="round" stroke-linejoin="round" stroke-miterlimit="10" d="
		M71.184,179.787"/>
	<line fill="none" stroke="#999999" stroke-width="0.75" stroke-miterlimit="10" x1="39.734" y1="51.114" x2="43.872" y2="51.114"/>
	<line fill="none" stroke="#999999" stroke-width="0.75" stroke-miterlimit="10" x1="39.734" y1="68.502" x2="43.872" y2="68.502"/>
	<rect x="98.835" y="44.243" fill="#FFFFFF" width="17.077" height="13.958"/>
	<g>
		
			<line fill="none" stroke="#F89E99" stroke-width="1.33" stroke-miterlimit="10" stroke-dasharray="8,8" x1="48.296" y1="363.711" x2="78.18" y2="363.711"/>
		<g>
			<path fill="#F89E99" d="M48.471,367.211c-1.933,0-3.5-1.567-3.5-3.5c0-1.933,1.567-3.5,3.5-3.5s3.5,1.567,3.5,3.5
				S50.404,367.211,48.471,367.211z"/>
		</g>
	</g>
	<g>
		
			<line fill="none" stroke="#F89E99" stroke-width="1.33" stroke-miterlimit="10" stroke-dasharray="8,8" x1="48.296" y1="259.547" x2="78.18" y2="259.547"/>
		<g>
			<path fill="#F89E99" d="M48.471,263.048c-1.933,0-3.5-1.567-3.5-3.5c0-1.933,1.567-3.5,3.5-3.5c1.933,0,3.5,1.567,3.5,3.5
				C51.971,261.48,50.404,263.048,48.471,263.048z"/>
		</g>
	</g>
	<line fill="none" stroke="#999999" stroke-width="0.75" stroke-miterlimit="10" x1="39.734" y1="85.89" x2="43.872" y2="85.89"/>
	
		<line fill="none" stroke="#999999" stroke-width="0.75" stroke-miterlimit="10" x1="39.734" y1="103.278" x2="43.872" y2="103.278"/>
	
		<line fill="none" stroke="#999999" stroke-width="0.75" stroke-miterlimit="10" x1="39.734" y1="120.666" x2="43.872" y2="120.666"/>
	
		<line fill="none" stroke="#999999" stroke-width="0.75" stroke-miterlimit="10" x1="39.734" y1="138.054" x2="43.872" y2="138.054"/>
	
		<line fill="none" stroke="#999999" stroke-width="0.75" stroke-miterlimit="10" x1="39.734" y1="155.442" x2="43.872" y2="155.442"/>
	<line fill="none" stroke="#999999" stroke-width="0.75" stroke-miterlimit="10" x1="39.734" y1="172.83" x2="43.872" y2="172.83"/>
	
		<line fill="none" stroke="#999999" stroke-width="0.75" stroke-miterlimit="10" x1="39.734" y1="190.218" x2="43.872" y2="190.218"/>
	
		<line fill="none" stroke="#999999" stroke-width="0.75" stroke-miterlimit="10" x1="39.734" y1="207.606" x2="43.872" y2="207.606"/>
	
		<line fill="none" stroke="#999999" stroke-width="0.75" stroke-miterlimit="10" x1="39.734" y1="224.994" x2="43.872" y2="224.994"/>
	
		<line fill="none" stroke="#999999" stroke-width="0.75" stroke-miterlimit="10" x1="39.734" y1="242.382" x2="43.872" y2="242.382"/>
	<line fill="none" stroke="#999999" stroke-width="0.75" stroke-miterlimit="10" x1="39.734" y1="259.77" x2="43.872" y2="259.77"/>
	
		<line fill="none" stroke="#999999" stroke-width="0.75" stroke-miterlimit="10" x1="39.734" y1="503.203" x2="43.872" y2="503.203"/>
	
		<line fill="none" stroke="#999999" stroke-width="0.75" stroke-miterlimit="10" x1="39.734" y1="520.592" x2="43.872" y2="520.592"/>
	<line fill="none" stroke="#999999" stroke-width="0.75" stroke-miterlimit="10" x1="39.734" y1="537.98" x2="43.872" y2="537.98"/>
	
		<line fill="none" stroke="#999999" stroke-width="0.75" stroke-miterlimit="10" x1="39.734" y1="555.368" x2="43.872" y2="555.368"/>
	
		<line fill="none" stroke="#999999" stroke-width="0.75" stroke-miterlimit="10" x1="39.734" y1="572.756" x2="43.872" y2="572.756"/>
	<rect x="99.835" y="166.466" fill="#FFFFFF" width="17.077" height="78.534"/>
	<path fill="none" stroke="#79C0F7" stroke-width="0.5" stroke-miterlimit="10" d="M38.589,480.097
		c-9.581,0-15.498,9.17-15.498,17.516"/>
	<g>
		
			<line fill="none" stroke="#F89E99" stroke-width="1.33" stroke-miterlimit="10" stroke-dasharray="8,8" x1="47.41" y1="207.404" x2="78.18" y2="207.404"/>
		<g>
			<path fill="#F89E99" d="M47.585,210.904c-1.933,0-3.5-1.567-3.5-3.5c0-1.933,1.567-3.5,3.5-3.5c1.933,0,3.5,1.567,3.5,3.5
				S49.518,210.904,47.585,210.904z"/>
		</g>
	</g>
	
		<line fill="none" stroke="#999999" stroke-width="0.75" stroke-miterlimit="10" x1="39.658" y1="433.651" x2="43.796" y2="433.651"/>
	
		<line fill="none" stroke="#999999" stroke-width="0.75" stroke-miterlimit="10" x1="39.658" y1="451.039" x2="43.796" y2="451.039"/>
	
		<line fill="none" stroke="#999999" stroke-width="0.75" stroke-miterlimit="10" x1="39.658" y1="468.427" x2="43.796" y2="468.427"/>
	
		<line fill="none" stroke="#999999" stroke-width="0.75" stroke-miterlimit="10" x1="39.658" y1="485.815" x2="43.796" y2="485.815"/>
	
		<line fill="none" stroke="#999999" stroke-width="0.75" stroke-miterlimit="10" x1="39.658" y1="503.204" x2="43.796" y2="503.204"/>
	
		<rect style="opacity:0.4;" x="-88.709" y="387.291" transform="matrix(-3.574480e-06 1 -1 -3.574480e-06 432.2919 348.7104)" fill="#44A6E0" width="261.001" height="6.418"/>
	<rect x="82.122" y="185" fill="#FFFFFF" width="202.878" height="60"/>
	
		<line fill="none" stroke="#999999" stroke-width="0.75" stroke-miterlimit="10" x1="39.658" y1="277.137" x2="43.796" y2="277.137"/>
	
		<line fill="none" stroke="#999999" stroke-width="0.75" stroke-miterlimit="10" x1="39.696" y1="294.503" x2="43.834" y2="294.503"/>
	<rect x="83.698" y="252.045" fill="#FFFFFF" width="53.352" height="12.955"/>
	
		<line fill="none" stroke="#999999" stroke-width="0.75" stroke-miterlimit="10" x1="39.696" y1="416.285" x2="43.834" y2="416.285"/>
	<rect x="82.969" y="221.191" fill="#FFFFFF" width="171.031" height="18.809"/>
	<rect x="165.745" y="438.996" fill="#FFFFFF" width="13.491" height="38.002"/>
	<g>
		<path fill="none" stroke="#D13838" stroke-width="1.33" stroke-miterlimit="10" d="M81.999,432.687
			c-21.199-0.766-33.71-26.98-33.94-51.644"/>
		<g>
			<path fill="#D13838" d="M51.593,381.23c0.006-1.933-1.556-3.505-3.489-3.511s-3.505,1.556-3.511,3.489
				c-0.006,1.933,1.556,3.505,3.489,3.511C50.015,384.725,51.587,383.162,51.593,381.23z"/>
		</g>
	</g>
	<line fill="none" stroke="#999999" stroke-width="0.75" stroke-miterlimit="10" x1="39.701" y1="311.89" x2="43.839" y2="311.89"/>
	
		<line fill="none" stroke="#999999" stroke-width="0.75" stroke-miterlimit="10" x1="39.701" y1="346.666" x2="43.839" y2="346.666"/>
	
		<line fill="none" stroke="#999999" stroke-width="0.75" stroke-miterlimit="10" x1="39.701" y1="364.054" x2="43.839" y2="364.054"/>
	
		<line fill="none" stroke="#999999" stroke-width="0.75" stroke-miterlimit="10" x1="39.701" y1="381.442" x2="43.839" y2="381.442"/>
	<line fill="none" stroke="#999999" stroke-width="0.75" stroke-miterlimit="10" x1="39.701" y1="398.83" x2="43.839" y2="398.83"/>
	
		<line fill="none" stroke="#999999" stroke-width="0.75" stroke-miterlimit="10" x1="39.701" y1="329.278" x2="43.839" y2="329.278"/>
	<rect x="221.475" y="426.971" fill="#FFFFFF" width="13.491" height="53.029"/>
	
		<line fill="none" stroke="#F89E99" stroke-width="1.33" stroke-miterlimit="10" stroke-dasharray="8" x1="149" y1="432.5" x2="212" y2="432.499"/>
	<rect x="283.721" y="440" fill="#FFFFFF" width="13.491" height="11.115"/>
	<g>
		<path fill="none" stroke="#D13838" stroke-width="1.33" stroke-miterlimit="10" d="M81.999,541
			c-19.828,0-32.577,15.794-34.191,31.317"/>
		<g>
			<path fill="#D13838" d="M44.348,571.935c-0.115,1.93,1.356,3.588,3.286,3.703c1.929,0.115,3.587-1.356,3.703-3.286
				c0.115-1.929-1.356-3.587-3.286-3.703C46.121,568.534,44.463,570.005,44.348,571.935z"/>
		</g>
	</g>
	<rect x="283.5" y="465" fill="#FFFFFF" width="11" height="13"/>
</g>
<style>
#g-cornell-mobile-img rect, #g-cornell-mobile-img circle, #g-cornell-mobile-img path, #g-cornell-mobile-img line, #g-cornell-mobile-img polyline { vector-effect: non-scaling-stroke; }
</style>
</svg>

