<?xml version="1.0" encoding="utf-8"?>
<!-- Generator: Adobe Illustrator 23.1.1, SVG Export Plug-In . SVG Version: 6.00 Build 0)  -->
<svg version="1.2" baseProfile="tiny" id="g-harvard-mobile-img" xmlns="http://www.w3.org/2000/svg" xmlns:xlink="http://www.w3.org/1999/xlink"
	 x="0px" y="0px" viewBox="0 0 320 600" xml:space="preserve">
<g>
	
		<line style="opacity:0.2;" fill="none" stroke="#999999" stroke-width="0.457" stroke-miterlimit="10" x1="163.288" y1="573.393" x2="163.288" y2="41.452"/>
	<rect style="opacity:0.2;" x="163.06" y="41.451" fill="none" width="0.457" height="531.941"/>
	<rect style="opacity:0.2;" x="102.807" y="41.451" fill="none" width="0.456" height="531.941"/>
	<rect x="156.102" y="377.823" fill="#FFFFFF" width="14.831" height="27.427"/>
	
		<line style="opacity:0.2;" fill="none" stroke="#999999" stroke-width="0.457" stroke-miterlimit="10" x1="223.542" y1="573.393" x2="223.542" y2="41.452"/>
	<rect style="opacity:0.2;" x="223.313" y="41.451" fill="none" width="0.457" height="531.941"/>
	<rect x="211.396" y="511.909" fill="#FFFFFF" width="26.491" height="44.468"/>
	<rect x="149.814" y="513.058" fill="#FFFFFF" width="26.491" height="34.345"/>
	<rect style="opacity:0.2;" x="283.567" y="41.451" fill="none" width="0.456" height="531.941"/>
	
		<line style="opacity:0.2;" fill="none" stroke="#999999" stroke-width="0.457" stroke-miterlimit="10" x1="283.795" y1="573.393" x2="283.795" y2="41.452"/>
	<rect x="219.139" y="440.595" fill="#FFFFFF" width="9.907" height="29.753"/>
	<rect x="158.014" y="440.595" fill="#FFFFFF" width="11.006" height="29.753"/>
	
		<line style="opacity:0.2;" fill="none" stroke="#999999" stroke-width="0.457" stroke-miterlimit="10" x1="103.035" y1="573.393" x2="103.035" y2="41.452"/>
	<rect x="95.686" y="424.811" fill="#FFFFFF" width="11.234" height="45.537"/>
	<polyline fill="#E6E6E6" points="42.999,52.806 43.037,70.631 43.037,87.986 43.037,105.341 43.037,122.695 43.15,140.05 
		43.301,157.39 43.639,174.745 43.939,192.099 45.18,209.454 45.255,226.808 45.556,244.163 45.932,261.518 46.27,278.872 
		46.909,296.227 47.698,313.582 48.187,330.936 49.09,348.291 50.818,365.645 52.849,383.001 55.555,400.355 58.449,417.71 
		61.569,435.064 70.741,452.419 86.979,469.773 100.851,487.128 120.585,504.483 144.942,521.838 161.633,539.192 180.728,556.547 
		200.863,572.604 43.009,572.604 43,53.277 	"/>
	<rect x="219.974" y="564.06" fill="#FFFFFF" width="26.491" height="11.461"/>
	<rect x="111.72" y="180.67" fill="#FFFFFF" width="11.313" height="37.275"/>
	<g>
		
			<line fill="none" stroke="#F89E99" stroke-width="1.33" stroke-miterlimit="10" stroke-dasharray="8,8" x1="44.765" y1="259.77" x2="80.401" y2="259.726"/>
		<g>
			<path fill="#F89E99" d="M44.944,263.27c-1.933,0.002-3.502-1.563-3.505-3.496s1.563-3.502,3.496-3.505
				c1.933-0.002,3.502,1.563,3.505,3.496C48.443,261.698,46.877,263.268,44.944,263.27z"/>
		</g>
	</g>
	<g>
		
			<line fill="none" stroke="#D13838" stroke-width="1.33" stroke-miterlimit="10" x1="44.601" y1="450.703" x2="80.401" y2="450.703"/>
		<g>
			<path fill="#D13838" d="M44.776,454.203c-1.933,0-3.5-1.567-3.5-3.5s1.567-3.5,3.5-3.5c1.933,0,3.5,1.567,3.5,3.5
				S46.709,454.203,44.776,454.203z"/>
		</g>
	</g>
	<g>
		<path fill="none" stroke="#F89E99" stroke-width="1.33" stroke-miterlimit="10" stroke-dasharray="8,8" d="M79.863,136.958
			c-21.19,10.401-35.805,34.402-36.738,65.482"/>
		<g>
			
				<ellipse transform="matrix(0.9261 -0.3773 0.3773 0.9261 -73.1235 31.237)" fill="#F89E99" cx="43.173" cy="202.271" rx="3.5" ry="3.5"/>
		</g>
	</g>
	<rect style="opacity:0.4;" x="33.673" y="277.062" fill="#BDE1FF" width="7.022" height="156.517"/>
	<rect x="33.673" y="277.062" fill="none" width="7.022" height="156.517"/>
	<g>
		<path fill="none" stroke="#D13838" stroke-width="1.33" stroke-miterlimit="10" d="M83.328,534.923
			c-23.516,0-38.548,18.953-40.181,37.375"/>
		<g>
			<path fill="#D13838" d="M39.674,571.951c-0.095,1.931,1.394,3.573,3.325,3.667s3.573-1.394,3.667-3.325
				c0.095-1.931-1.394-3.573-3.325-3.667C41.411,568.531,39.769,570.02,39.674,571.951z"/>
		</g>
	</g>
	<line fill="none" stroke="#999999" stroke-width="0.75" stroke-miterlimit="10" x1="35.558" y1="51.017" x2="39.696" y2="51.017"/>
	<line fill="none" stroke="#999999" stroke-width="0.75" stroke-miterlimit="10" x1="35.558" y1="68.405" x2="39.696" y2="68.405"/>
	<line fill="none" stroke="#999999" stroke-width="0.75" stroke-miterlimit="10" x1="35.558" y1="85.793" x2="39.696" y2="85.793"/>
	
		<line fill="none" stroke="#999999" stroke-width="0.75" stroke-miterlimit="10" x1="35.558" y1="103.181" x2="39.696" y2="103.181"/>
	
		<line fill="none" stroke="#999999" stroke-width="0.75" stroke-miterlimit="10" x1="35.558" y1="120.569" x2="39.696" y2="120.569"/>
	
		<line fill="none" stroke="#999999" stroke-width="0.75" stroke-miterlimit="10" x1="35.558" y1="137.957" x2="39.696" y2="137.957"/>
	
		<line fill="none" stroke="#999999" stroke-width="0.75" stroke-miterlimit="10" x1="35.558" y1="155.345" x2="39.696" y2="155.345"/>
	
		<line fill="none" stroke="#999999" stroke-width="0.75" stroke-miterlimit="10" x1="35.558" y1="172.733" x2="39.696" y2="172.733"/>
	
		<line fill="none" stroke="#999999" stroke-width="0.75" stroke-miterlimit="10" x1="35.558" y1="190.121" x2="39.696" y2="190.121"/>
	
		<line fill="none" stroke="#999999" stroke-width="0.75" stroke-miterlimit="10" x1="35.558" y1="207.509" x2="39.696" y2="207.509"/>
	
		<line fill="none" stroke="#999999" stroke-width="0.75" stroke-miterlimit="10" x1="35.558" y1="224.897" x2="39.696" y2="224.897"/>
	
		<line fill="none" stroke="#999999" stroke-width="0.75" stroke-miterlimit="10" x1="35.558" y1="242.286" x2="39.696" y2="242.286"/>
	
		<line fill="none" stroke="#999999" stroke-width="0.75" stroke-miterlimit="10" x1="35.558" y1="259.673" x2="39.696" y2="259.673"/>
	
		<line fill="none" stroke="#999999" stroke-width="0.75" stroke-miterlimit="10" x1="35.558" y1="503.106" x2="39.696" y2="503.106"/>
	
		<line fill="none" stroke="#999999" stroke-width="0.75" stroke-miterlimit="10" x1="35.558" y1="520.494" x2="39.696" y2="520.494"/>
	
		<line fill="none" stroke="#999999" stroke-width="0.75" stroke-miterlimit="10" x1="35.558" y1="537.883" x2="39.696" y2="537.883"/>
	
		<line fill="none" stroke="#999999" stroke-width="0.75" stroke-miterlimit="10" x1="35.558" y1="555.271" x2="39.696" y2="555.271"/>
	
		<line fill="none" stroke="#999999" stroke-width="0.75" stroke-miterlimit="10" x1="35.558" y1="572.659" x2="39.696" y2="572.659"/>
	
		<line fill="none" stroke="#999999" stroke-width="0.75" stroke-miterlimit="10" x1="35.481" y1="433.555" x2="39.619" y2="433.555"/>
	
		<line fill="none" stroke="#999999" stroke-width="0.75" stroke-miterlimit="10" x1="35.481" y1="450.942" x2="39.619" y2="450.942"/>
	<line fill="none" stroke="#999999" stroke-width="0.75" stroke-miterlimit="10" x1="35.481" y1="468.33" x2="39.619" y2="468.33"/>
	
		<line fill="none" stroke="#999999" stroke-width="0.75" stroke-miterlimit="10" x1="35.481" y1="485.719" x2="39.619" y2="485.719"/>
	
		<line fill="none" stroke="#999999" stroke-width="0.75" stroke-miterlimit="10" x1="35.481" y1="503.106" x2="39.619" y2="503.106"/>
	<line fill="none" stroke="#999999" stroke-width="0.75" stroke-miterlimit="10" x1="35.481" y1="277.04" x2="39.619" y2="277.04"/>
	
		<line fill="none" stroke="#999999" stroke-width="0.75" stroke-miterlimit="10" x1="35.52" y1="294.406" x2="39.657" y2="294.406"/>
	
		<line fill="none" stroke="#999999" stroke-width="0.75" stroke-miterlimit="10" x1="35.52" y1="416.189" x2="39.657" y2="416.189"/>
	<g>
		
			<line fill="none" stroke="#F89E99" stroke-width="1.33" stroke-miterlimit="10" x1="46.302" y1="381.703" x2="50.302" y2="381.7"/>
		
			<line fill="none" stroke="#F89E99" stroke-width="1.33" stroke-miterlimit="10" stroke-dasharray="8.6995,8.6995" x1="59.001" y1="381.694" x2="72.051" y2="381.685"/>
		
			<line fill="none" stroke="#F89E99" stroke-width="1.33" stroke-miterlimit="10" x1="76.401" y1="381.681" x2="80.401" y2="381.679"/>
		<g>
			<path fill="#F89E99" d="M46.479,385.203c-1.933,0.001-3.502-1.565-3.503-3.498c-0.001-1.933,1.565-3.501,3.498-3.503
				c1.933-0.001,3.501,1.565,3.503,3.498C49.979,383.633,48.412,385.202,46.479,385.203z"/>
		</g>
	</g>
	<rect x="216.677" y="377.749" fill="#FFFFFF" width="14.831" height="27.501"/>
	<rect x="95.686" y="361.783" fill="#FFFFFF" width="14.831" height="44.467"/>
	<rect x="96.923" y="44.692" fill="#FFFFFF" width="72.219" height="12.871"/>
	<g>
		<path fill="none" stroke="#D13838" stroke-width="1.33" stroke-miterlimit="10" d="M80.401,199.307
			c-16.854,0-34.263,12.488-36.963,24.91"/>
		<g>
			<circle fill="#D13838" cx="43.521" cy="224.055" r="3.5"/>
		</g>
	</g>
	<rect x="96.923" y="85.793" fill="#FFFFFF" width="14.797" height="73.279"/>
	<rect x="156.119" y="101.998" fill="#FFFFFF" width="14.797" height="57.073"/>
	<rect x="215.915" y="101.998" fill="#FFFFFF" width="14.797" height="57.073"/>
	<rect x="276.625" y="133.799" fill="#FFFFFF" width="14.797" height="14.797"/>
	<rect x="95.409" y="176.891" fill="#FFFFFF" width="14.797" height="56.928"/>
	<rect x="155.662" y="191.25" fill="#FFFFFF" width="14.797" height="30.569"/>
	<rect x="215.915" y="191.25" fill="#FFFFFF" width="14.797" height="30.569"/>
	<rect x="95.409" y="251.65" fill="#FFFFFF" width="14.797" height="46.878"/>
	<rect x="155.89" y="266.884" fill="#FFFFFF" width="14.797" height="31.645"/>
	<rect x="216.694" y="267.971" fill="#FFFFFF" width="14.797" height="30.557"/>
</g>
<style>
#g-harvard-mobile-img rect, #g-harvard-mobile-img circle, #g-harvard-mobile-img path, #g-harvard-mobile-img line, #g-harvard-mobile-img polyline { vector-effect: non-scaling-stroke; }
</style>
</svg>

