<?xml version="1.0" encoding="utf-8"?>
<!-- Generator: Adobe Illustrator 23.1.1, SVG Export Plug-In . SVG Version: 6.00 Build 0)  -->
<svg version="1.2" baseProfile="tiny" id="g-harvard-desktop-img" xmlns="http://www.w3.org/2000/svg" xmlns:xlink="http://www.w3.org/1999/xlink"
	 x="0px" y="0px" viewBox="0 0 700 750" xml:space="preserve">
<g>
	<rect style="opacity:0.2;" x="221.574" y="48.403" fill="none" width="0.75" height="673.594"/>
	
		<line style="opacity:0.2;" fill="none" stroke="#999999" stroke-width="0.75" stroke-miterlimit="10" x1="350.36" y1="721.997" x2="350.36" y2="48.403"/>
	<rect style="opacity:0.2;" x="349.986" y="48.403" fill="none" width="0.75" height="673.594"/>
	
		<line style="opacity:0.2;" fill="none" stroke="#999999" stroke-width="0.75" stroke-miterlimit="10" x1="221.949" y1="721.997" x2="221.949" y2="48.403"/>
	<rect x="331.798" y="542.675" fill="#FFFFFF" width="36.375" height="33.71"/>
	
		<line style="opacity:0.2;" fill="none" stroke="#999999" stroke-width="0.75" stroke-miterlimit="10" x1="607.184" y1="721.997" x2="607.184" y2="48.403"/>
	<rect style="opacity:0.2;" x="606.809" y="-5.671" fill="none" width="0.75" height="742.581"/>
	
		<line style="opacity:0.2;" fill="none" stroke="#999999" stroke-width="0.75" stroke-miterlimit="10" x1="478.772" y1="721.997" x2="478.772" y2="48.403"/>
	<rect x="213.633" y="53.389" fill="#FFFFFF" width="17.595" height="12.836"/>
	<rect style="opacity:0.2;" x="478.397" y="48.403" fill="none" width="0.75" height="673.594"/>
	<rect x="214.633" y="252.754" fill="#FFFFFF" width="14.108" height="52.13"/>
	<polyline fill="#E6E6E6" points="94,62.782 94.082,85.354 94.082,107.33 94.082,129.306 94.082,151.282 94.323,173.259 
		94.643,195.216 95.364,217.192 96.005,239.168 98.648,261.144 98.809,283.12 99.45,305.096 100.251,327.073 100.972,349.049 
		102.333,371.025 104.016,393.001 105.058,414.977 106.98,436.953 110.665,458.929 114.991,480.905 120.759,502.882 
		126.928,524.857 133.577,546.833 153.124,568.809 187.732,590.785 217.292,612.761 259.351,634.737 311.263,656.714 
		346.832,678.689 387.528,700.666 430.439,721 94.021,721 94.002,63.378 	"/>
	<rect x="217.672" y="151.561" fill="#FFFFFF" width="36.375" height="86.827"/>
	<rect x="204.898" y="524.499" fill="#FFFFFF" width="36.375" height="51.948"/>
	<rect x="435.599" y="704.95" fill="#FFFFFF" width="56.458" height="20.754"/>
	<rect x="214.143" y="448.528" fill="#FFFFFF" width="36.375" height="50.409"/>
	<rect x="335.332" y="172.345" fill="#FFFFFF" width="36.375" height="66.043"/>
	<rect x="75.423" y="346.527" fill="none" width="13.397" height="198.28"/>
	<line fill="none" stroke="#999999" stroke-width="0.75" stroke-miterlimit="10" x1="77.876" y1="60.167" x2="86.689" y2="60.167"/>
	<line fill="none" stroke="#999999" stroke-width="0.75" stroke-miterlimit="10" x1="77.876" y1="82.194" x2="86.689" y2="82.194"/>
	
		<line fill="none" stroke="#999999" stroke-width="0.75" stroke-miterlimit="10" x1="77.876" y1="104.222" x2="86.689" y2="104.222"/>
	<line fill="none" stroke="#999999" stroke-width="0.75" stroke-miterlimit="10" x1="77.876" y1="126.25" x2="86.689" y2="126.25"/>
	
		<line fill="none" stroke="#999999" stroke-width="0.75" stroke-miterlimit="10" x1="77.876" y1="148.277" x2="86.689" y2="148.277"/>
	
		<line fill="none" stroke="#999999" stroke-width="0.75" stroke-miterlimit="10" x1="77.876" y1="170.305" x2="86.689" y2="170.305"/>
	
		<line fill="none" stroke="#999999" stroke-width="0.75" stroke-miterlimit="10" x1="77.876" y1="192.333" x2="86.689" y2="192.333"/>
	<line fill="none" stroke="#999999" stroke-width="0.75" stroke-miterlimit="10" x1="77.876" y1="214.36" x2="86.689" y2="214.36"/>
	
		<line fill="none" stroke="#999999" stroke-width="0.75" stroke-miterlimit="10" x1="77.876" y1="236.388" x2="86.689" y2="236.388"/>
	
		<line fill="none" stroke="#999999" stroke-width="0.75" stroke-miterlimit="10" x1="77.876" y1="258.415" x2="86.689" y2="258.415"/>
	
		<line fill="none" stroke="#999999" stroke-width="0.75" stroke-miterlimit="10" x1="77.876" y1="280.443" x2="86.689" y2="280.443"/>
	
		<line fill="none" stroke="#999999" stroke-width="0.75" stroke-miterlimit="10" x1="77.876" y1="302.471" x2="86.689" y2="302.471"/>
	
		<line fill="none" stroke="#999999" stroke-width="0.75" stroke-miterlimit="10" x1="77.876" y1="324.499" x2="86.689" y2="324.499"/>
	
		<line fill="none" stroke="#999999" stroke-width="0.75" stroke-miterlimit="10" x1="77.876" y1="632.886" x2="86.689" y2="632.886"/>
	
		<line fill="none" stroke="#999999" stroke-width="0.75" stroke-miterlimit="10" x1="77.876" y1="654.913" x2="86.689" y2="654.913"/>
	
		<line fill="none" stroke="#999999" stroke-width="0.75" stroke-miterlimit="10" x1="77.876" y1="676.941" x2="86.689" y2="676.941"/>
	
		<line fill="none" stroke="#999999" stroke-width="0.75" stroke-miterlimit="10" x1="77.876" y1="698.969" x2="86.689" y2="698.969"/>
	
		<line fill="none" stroke="#999999" stroke-width="0.75" stroke-miterlimit="10" x1="77.876" y1="720.996" x2="86.689" y2="720.996"/>
	<g>
		
			<line fill="none" stroke="#D13838" stroke-width="1.33" stroke-miterlimit="10" x1="96.885" y1="281.159" x2="156.978" y2="281.159"/>
		<g>
			<path fill="#D13838" d="M97.06,284.66c-1.933,0-3.5-1.567-3.5-3.5s1.567-3.5,3.5-3.5c1.933,0,3.5,1.567,3.5,3.5
				S98.993,284.66,97.06,284.66z"/>
		</g>
	</g>
	<g>
		
			<line fill="none" stroke="#F89E99" stroke-width="1.33" stroke-miterlimit="10" stroke-dasharray="8,8" x1="97.134" y1="324.874" x2="156.978" y2="324.804"/>
		<g>
			<path fill="#F89E99" d="M97.313,328.374c-1.933,0.002-3.502-1.563-3.505-3.496s1.563-3.502,3.496-3.504
				c1.933-0.002,3.502,1.563,3.504,3.496S99.246,328.372,97.313,328.374z"/>
		</g>
	</g>
	
		<line fill="none" stroke="#999999" stroke-width="0.75" stroke-miterlimit="10" x1="77.715" y1="544.775" x2="86.528" y2="544.775"/>
	
		<line fill="none" stroke="#999999" stroke-width="0.75" stroke-miterlimit="10" x1="77.715" y1="566.803" x2="86.528" y2="566.803"/>
	
		<line fill="none" stroke="#999999" stroke-width="0.75" stroke-miterlimit="10" x1="77.715" y1="588.831" x2="86.528" y2="588.831"/>
	
		<line fill="none" stroke="#999999" stroke-width="0.75" stroke-miterlimit="10" x1="77.715" y1="610.858" x2="86.528" y2="610.858"/>
	
		<line fill="none" stroke="#999999" stroke-width="0.75" stroke-miterlimit="10" x1="77.715" y1="632.886" x2="86.528" y2="632.886"/>
	
		<line fill="none" stroke="#999999" stroke-width="0.75" stroke-miterlimit="10" x1="77.715" y1="346.499" x2="86.528" y2="346.499"/>
	
		<line fill="none" stroke="#999999" stroke-width="0.75" stroke-miterlimit="10" x1="77.795" y1="368.499" x2="86.608" y2="368.499"/>
	
		<line fill="none" stroke="#999999" stroke-width="0.75" stroke-miterlimit="10" x1="77.795" y1="522.775" x2="86.608" y2="522.775"/>
	<g>
		
			<line fill="none" stroke="#D13838" stroke-width="1.33" stroke-miterlimit="10" x1="93.772" y1="566.637" x2="158.898" y2="566.637"/>
		<g>
			<circle fill="#D13838" cx="93.947" cy="566.637" r="3.5"/>
		</g>
	</g>
	<g>
		<path fill="none" stroke="#F89E99" stroke-width="1.33" stroke-miterlimit="10" stroke-dasharray="8,8" d="M188.032,163.362
			c-55.918,0.168-90.837,48.571-92.37,93.794"/>
		<g>
			<path fill="#F89E99" d="M92.185,256.906c-0.041,1.933,1.493,3.533,3.425,3.574c1.932,0.041,3.533-1.493,3.574-3.425
				c0.041-1.932-1.493-3.533-3.425-3.574C93.826,253.439,92.226,254.973,92.185,256.906z"/>
		</g>
	</g>
	<g>
		<path fill="none" stroke="#D13838" stroke-width="1.33" stroke-miterlimit="10" d="M138,681
			c-24.939,0-40.881,18.954-42.611,37.377"/>
		<g>
			<path fill="#D13838" d="M91.918,718.017c-0.1,1.93,1.384,3.577,3.314,3.677c1.93,0.1,3.577-1.384,3.677-3.314
				c0.1-1.93-1.384-3.577-3.314-3.677S92.018,716.086,91.918,718.017z"/>
		</g>
	</g>
	<g>
		
			<line fill="none" stroke="#F89E99" stroke-width="1.33" stroke-miterlimit="10" stroke-dasharray="8,8" x1="95.325" y1="477.497" x2="158.898" y2="477.496"/>
		<g>
			<path fill="#F89E99" d="M95.5,480.997c-1.933,0-3.5-1.567-3.5-3.5c0-1.933,1.567-3.5,3.5-3.5s3.5,1.567,3.5,3.5
				C99.001,479.43,97.433,480.997,95.5,480.997z"/>
		</g>
	</g>
	<rect x="343.682" y="271.234" fill="#FFFFFF" width="14.108" height="33.651"/>
	<rect x="341.779" y="336.731" fill="#FFFFFF" width="16.413" height="32.992"/>
	<rect x="214.878" y="316.087" fill="#FFFFFF" width="16.413" height="52.636"/>
	<rect style="opacity:0.4;" x="75.423" y="346.527" fill="#BDE1FF" width="13.397" height="198.281"/>
</g>
<style>
#g-harvard-desktop-img rect, #g-harvard-desktop-img circle, #g-harvard-desktop-img path, #g-harvard-desktop-img line, #g-harvard-desktop-img polyline { vector-effect: non-scaling-stroke; }
</style>
</svg>

