<?xml version="1.0" encoding="utf-8"?>
<!-- Generator: Adobe Illustrator 23.1.1, SVG Export Plug-In . SVG Version: 6.00 Build 0)  -->
<svg version="1.2" baseProfile="tiny" id="g-penn-mobile-img" xmlns="http://www.w3.org/2000/svg" xmlns:xlink="http://www.w3.org/1999/xlink"
	 x="0px" y="0px" viewBox="0 0 320 600" xml:space="preserve">
<g>
	
		<rect style="opacity:0.4;" x="-38.15" y="229.489" transform="matrix(-3.107446e-08 1 -1 -3.107446e-08 272.85 193.1497)" fill="#BDE1FF" width="156.001" height="7.022"/>
	
		<line style="opacity:0.2;" fill="none" stroke="#999999" stroke-width="0.75" stroke-miterlimit="10" x1="165.89" y1="572.644" x2="165.89" y2="40.927"/>
	
		<line style="opacity:0.2;" fill="none" stroke="#999999" stroke-width="0.75" stroke-miterlimit="10" x1="226.177" y1="572.644" x2="226.177" y2="40.927"/>
	
		<line style="opacity:0.2;" fill="none" stroke="#999999" stroke-width="0.75" stroke-miterlimit="10" x1="105.603" y1="572.644" x2="105.603" y2="40.927"/>
	
		<line style="opacity:0.2;" fill="none" stroke="#999999" stroke-width="0.75" stroke-miterlimit="10" x1="286.464" y1="572.644" x2="286.464" y2="40.927"/>
	<polyline fill="#E6E6E6" points="45.323,49.863 45.323,67.241 45.328,84.619 45.353,101.996 45.388,119.374 45.452,136.752 
		45.586,154.115 45.641,171.493 45.75,188.871 45.839,206.249 45.973,223.626 46.3,241.004 46.588,258.382 47.158,275.76 
		47.525,293.137 48.185,310.515 49.46,327.893 52.5,345.271 57.831,362.648 66.724,380.026 76.529,397.404 91.03,414.782 
		108.23,432.159 122.662,449.537 144.965,466.915 162.809,484.293 179.83,501.671 206.131,519.048 224.828,536.426 247.751,553.804 
		273.843,571.854 45.323,571.854 45.323,115.669 	"/>
	
		<path fill="#E3DACB" stroke="#E3DACB" stroke-width="5" stroke-linecap="round" stroke-linejoin="round" stroke-miterlimit="10" d="
		M69.413,178.886"/>
	<line fill="none" stroke="#999999" stroke-width="0.75" stroke-miterlimit="10" x1="37.963" y1="50.212" x2="42.101" y2="50.212"/>
	<line fill="none" stroke="#999999" stroke-width="0.75" stroke-miterlimit="10" x1="37.963" y1="67.6" x2="42.101" y2="67.6"/>
	<rect x="97.064" y="43.341" fill="#FFFFFF" width="71.936" height="13.659"/>
	<line fill="none" stroke="#999999" stroke-width="0.75" stroke-miterlimit="10" x1="37.963" y1="84.988" x2="42.101" y2="84.988"/>
	
		<line fill="none" stroke="#999999" stroke-width="0.75" stroke-miterlimit="10" x1="37.963" y1="102.376" x2="42.101" y2="102.376"/>
	
		<line fill="none" stroke="#999999" stroke-width="0.75" stroke-miterlimit="10" x1="37.963" y1="119.765" x2="42.101" y2="119.765"/>
	
		<line fill="none" stroke="#999999" stroke-width="0.75" stroke-miterlimit="10" x1="37.963" y1="137.153" x2="42.101" y2="137.153"/>
	
		<line fill="none" stroke="#999999" stroke-width="0.75" stroke-miterlimit="10" x1="37.963" y1="154.541" x2="42.101" y2="154.541"/>
	
		<line fill="none" stroke="#999999" stroke-width="0.75" stroke-miterlimit="10" x1="37.963" y1="171.929" x2="42.101" y2="171.929"/>
	
		<line fill="none" stroke="#999999" stroke-width="0.75" stroke-miterlimit="10" x1="37.964" y1="502.302" x2="42.101" y2="502.302"/>
	<line fill="none" stroke="#999999" stroke-width="0.75" stroke-miterlimit="10" x1="37.964" y1="519.69" x2="42.101" y2="519.69"/>
	
		<line fill="none" stroke="#999999" stroke-width="0.75" stroke-miterlimit="10" x1="37.964" y1="537.078" x2="42.101" y2="537.078"/>
	
		<line fill="none" stroke="#999999" stroke-width="0.75" stroke-miterlimit="10" x1="37.964" y1="554.466" x2="42.101" y2="554.466"/>
	
		<line fill="none" stroke="#999999" stroke-width="0.75" stroke-miterlimit="10" x1="37.964" y1="571.854" x2="42.101" y2="571.854"/>
	<path fill="none" stroke="#79C0F7" stroke-width="0.5" stroke-miterlimit="10" d="M36.819,408.195
		c-9.581,0-15.498,9.17-15.498,17.516"/>
	<line fill="none" stroke="#999999" stroke-width="0.75" stroke-miterlimit="10" x1="37.888" y1="432.75" x2="42.026" y2="432.75"/>
	
		<line fill="none" stroke="#999999" stroke-width="0.75" stroke-miterlimit="10" x1="37.888" y1="450.138" x2="42.026" y2="450.138"/>
	
		<line fill="none" stroke="#999999" stroke-width="0.75" stroke-miterlimit="10" x1="37.888" y1="467.526" x2="42.026" y2="467.526"/>
	
		<line fill="none" stroke="#999999" stroke-width="0.75" stroke-miterlimit="10" x1="37.888" y1="484.914" x2="42.026" y2="484.914"/>
	
		<line fill="none" stroke="#999999" stroke-width="0.75" stroke-miterlimit="10" x1="37.888" y1="502.302" x2="42.026" y2="502.302"/>
	
		<rect style="opacity:0.4;" x="-21.15" y="368.489" transform="matrix(-2.490831e-06 1 -1 -2.490831e-06 411.8492 332.1507)" fill="#44A6E0" width="121.999" height="7.022"/>
	
		<line fill="none" stroke="#999999" stroke-width="0.75" stroke-miterlimit="10" x1="37.926" y1="293.602" x2="42.063" y2="293.602"/>
	
		<line fill="none" stroke="#999999" stroke-width="0.75" stroke-miterlimit="10" x1="37.926" y1="415.384" x2="42.063" y2="415.384"/>
	
		<line fill="none" stroke="#999999" stroke-width="0.75" stroke-miterlimit="10" x1="37.931" y1="311.112" x2="42.069" y2="311.112"/>
	<line fill="none" stroke="#999999" stroke-width="0.75" stroke-miterlimit="10" x1="37.931" y1="328.5" x2="42.069" y2="328.5"/>
	
		<line fill="none" stroke="#999999" stroke-width="0.75" stroke-miterlimit="10" x1="37.931" y1="345.888" x2="42.069" y2="345.888"/>
	
		<line fill="none" stroke="#999999" stroke-width="0.75" stroke-miterlimit="10" x1="37.931" y1="363.276" x2="42.069" y2="363.276"/>
	<line fill="none" stroke="#999999" stroke-width="0.75" stroke-miterlimit="10" x1="37.931" y1="380.65" x2="42.069" y2="380.65"/>
	
		<line fill="none" stroke="#999999" stroke-width="0.75" stroke-miterlimit="10" x1="37.931" y1="398.038" x2="42.069" y2="398.038"/>
	<g>
		<path fill="none" stroke="#D13838" stroke-width="1.33" stroke-miterlimit="10" d="M62,179
			c-8.983,7.829-15.643,24.937-15.51,45.096"/>
		<g>
			<path fill="#D13838" d="M42.999,223.995c0.041,1.932,1.641,3.466,3.574,3.425c1.932-0.041,3.466-1.641,3.425-3.574
				c-0.041-1.932-1.641-3.466-3.574-3.425C44.492,220.462,42.958,222.062,42.999,223.995z"/>
		</g>
	</g>
	<g>
		<line fill="none" stroke="#D13838" stroke-width="1.33" stroke-miterlimit="10" x1="46.906" y1="242.18" x2="72" y2="242.179"/>
		<g>
			<path fill="#D13838" d="M47.081,245.68c-1.933,0-3.5-1.567-3.5-3.5s1.567-3.5,3.5-3.5s3.5,1.567,3.5,3.5
				C50.581,244.112,49.014,245.68,47.081,245.68z"/>
		</g>
	</g>
	<rect x="102" y="149" fill="#FFFFFF" width="7" height="51"/>
	<rect x="162" y="152" fill="#FFFFFF" width="70" height="30"/>
	<rect x="102" y="218" fill="#FFFFFF" width="67" height="82"/>
	<rect x="223" y="217" fill="#FFFFFF" width="7" height="66"/>
	<rect x="102" y="312" fill="#FFFFFF" width="68" height="68"/>
	<rect x="223" y="315" fill="#FFFFFF" width="7" height="49"/>
	<g>
		<path fill="none" stroke="#D13838" stroke-width="1.33" stroke-miterlimit="10" d="M92,338.998
			c-25.65,0.18-42.111-14.22-44.271-28.55"/>
		<g>
			<path fill="#D13838" d="M51.275,310.32c-0.166-1.926-1.862-3.353-3.788-3.187c-1.926,0.166-3.353,1.862-3.187,3.788
				c0.166,1.926,1.862,3.353,3.788,3.186S51.441,312.246,51.275,310.32z"/>
		</g>
	</g>
</g>
<style>
#g-penn-mobile-img rect, #g-penn-mobile-img circle, #g-penn-mobile-img path, #g-penn-mobile-img line, #g-penn-mobile-img polyline { vector-effect: non-scaling-stroke; }
</style>
</svg>

