<?xml version="1.0" encoding="utf-8"?>
<!-- Generator: Adobe Illustrator 23.1.1, SVG Export Plug-In . SVG Version: 6.00 Build 0)  -->
<svg version="1.2" baseProfile="tiny" id="g-penn-desktop-img" xmlns="http://www.w3.org/2000/svg" xmlns:xlink="http://www.w3.org/1999/xlink"
	 x="0px" y="0px" viewBox="0 0 700 750" xml:space="preserve">
<g>
	
		<rect style="opacity:0.4;" x="-8.698" y="279.298" transform="matrix(4.966469e-07 1 -1 4.966469e-07 378.7271 197.4902)" fill="#BDE1FF" width="198.632" height="17.622"/>
	
		<line style="opacity:0.2;" fill="none" stroke="#999999" stroke-width="0.75" stroke-miterlimit="10" x1="615.985" y1="718.469" x2="615.985" y2="46.196"/>
	
		<line style="opacity:0.2;" fill="none" stroke="#999999" stroke-width="0.75" stroke-miterlimit="10" x1="230.857" y1="718.469" x2="230.857" y2="46.196"/>
	
		<line style="opacity:0.2;" fill="none" stroke="#999999" stroke-width="0.75" stroke-miterlimit="10" x1="359.233" y1="718.469" x2="359.233" y2="46.196"/>
	
		<line style="opacity:0.2;" fill="none" stroke="#999999" stroke-width="0.75" stroke-miterlimit="10" x1="487.609" y1="718.469" x2="487.609" y2="46.196"/>
	<polyline fill="#E6E6E6" points="102.493,56.487 102.493,78.556 102.493,100.625 102.493,122.694 102.493,144.762 102.654,166.831 
		102.735,188.882 102.815,210.951 103.057,233.019 103.137,255.088 103.379,277.157 103.621,299.226 104.587,321.295 
		104.909,343.363 106.037,365.432 106.681,387.501 107.728,409.57 109.661,431.639 112.077,453.707 116.345,475.776 
		122.466,497.845 128.345,519.914 135.593,541.983 146.223,564.051 161.606,586.12 189.229,608.189 216.369,630.258 
		246.972,652.327 279.106,674.395 315.749,696.464 352.753,718.362 102.493,719.091 102.493,78.556 	"/>
	<path fill="#E3DACB" stroke="#E3DACB" stroke-width="5" stroke-miterlimit="10" d="M154.501,207.733"/>
	<line fill="none" stroke="#999999" stroke-width="0.75" stroke-miterlimit="10" x1="85" y1="56.487" x2="96" y2="56.487"/>
	<rect x="353" y="358" fill="#FFFFFF" width="14" height="14"/>
	<line fill="none" stroke="#999999" stroke-width="0.75" stroke-miterlimit="10" x1="85" y1="78.55" x2="96" y2="78.55"/>
	<line fill="none" stroke="#999999" stroke-width="0.75" stroke-miterlimit="10" x1="85" y1="100.612" x2="96" y2="100.612"/>
	<line fill="none" stroke="#999999" stroke-width="0.75" stroke-miterlimit="10" x1="85" y1="122.675" x2="96" y2="122.675"/>
	<line fill="none" stroke="#999999" stroke-width="0.75" stroke-miterlimit="10" x1="85" y1="144.737" x2="96" y2="144.737"/>
	<line fill="none" stroke="#999999" stroke-width="0.75" stroke-miterlimit="10" x1="85" y1="166.8" x2="96" y2="166.8"/>
	<line fill="none" stroke="#999999" stroke-width="0.75" stroke-miterlimit="10" x1="84.807" y1="188.862" x2="96" y2="188.862"/>
	<line fill="none" stroke="#999999" stroke-width="0.75" stroke-miterlimit="10" x1="84.807" y1="210.925" x2="96" y2="210.925"/>
	<line fill="none" stroke="#999999" stroke-width="0.75" stroke-miterlimit="10" x1="84.807" y1="365.362" x2="96" y2="365.362"/>
	<line fill="none" stroke="#999999" stroke-width="0.75" stroke-miterlimit="10" x1="84.807" y1="387.425" x2="96" y2="387.425"/>
	<line fill="none" stroke="#999999" stroke-width="0.75" stroke-miterlimit="10" x1="84.807" y1="409.487" x2="96" y2="409.487"/>
	<line fill="none" stroke="#999999" stroke-width="0.75" stroke-miterlimit="10" x1="84.808" y1="431.55" x2="96" y2="431.55"/>
	<line fill="none" stroke="#999999" stroke-width="0.75" stroke-miterlimit="10" x1="84.808" y1="453.612" x2="96" y2="453.612"/>
	<line fill="none" stroke="#999999" stroke-width="0.75" stroke-miterlimit="10" x1="84.808" y1="475.675" x2="96" y2="475.675"/>
	<line fill="none" stroke="#999999" stroke-width="0.75" stroke-miterlimit="10" x1="84.808" y1="497.737" x2="96" y2="497.737"/>
	<line fill="none" stroke="#999999" stroke-width="0.75" stroke-miterlimit="10" x1="84.808" y1="519.8" x2="96" y2="519.8"/>
	<line fill="none" stroke="#999999" stroke-width="0.75" stroke-miterlimit="10" x1="84.808" y1="541.862" x2="96" y2="541.862"/>
	<line fill="none" stroke="#999999" stroke-width="0.75" stroke-miterlimit="10" x1="84.808" y1="563.925" x2="96" y2="563.925"/>
	<line fill="none" stroke="#999999" stroke-width="0.75" stroke-miterlimit="10" x1="84.808" y1="585.987" x2="96" y2="585.987"/>
	<line fill="none" stroke="#999999" stroke-width="0.75" stroke-miterlimit="10" x1="84.808" y1="608.05" x2="96" y2="608.05"/>
	<line fill="none" stroke="#999999" stroke-width="0.75" stroke-miterlimit="10" x1="84.808" y1="630.112" x2="96" y2="630.112"/>
	<line fill="none" stroke="#999999" stroke-width="0.75" stroke-miterlimit="10" x1="84.808" y1="652.175" x2="96" y2="652.175"/>
	<line fill="none" stroke="#999999" stroke-width="0.75" stroke-miterlimit="10" x1="84.808" y1="674.237" x2="96" y2="674.237"/>
	<rect x="221" y="306" fill="#FFFFFF" width="20" height="66"/>
	<rect x="221" y="381" fill="#FFFFFF" width="20" height="86"/>
	<rect x="349" y="400" fill="#FFFFFF" width="20" height="68"/>
	<g>
		
			<line fill="none" stroke="#D13838" stroke-width="1.33" stroke-miterlimit="10" x1="104.516" y1="323.698" x2="175" y2="323.698"/>
		<g>
			<path fill="#D13838" d="M104.691,327.198c-1.933,0-3.5-1.567-3.5-3.5c0-1.933,1.567-3.5,3.5-3.5c1.933,0,3.5,1.567,3.5,3.5
				C108.192,325.631,106.624,327.198,104.691,327.198z"/>
		</g>
	</g>
	<rect x="350" y="168" fill="#FFFFFF" width="20" height="84"/>
	<rect x="220" y="149" fill="#FFFFFF" width="20" height="103"/>
	<rect x="221" y="480" fill="#FFFFFF" width="20" height="48"/>
	<rect x="475" y="288" fill="#FFFFFF" width="20" height="36"/>
	<g>
		
			<line fill="none" stroke="#D13838" stroke-width="1.33" stroke-miterlimit="10" x1="104.516" y1="387.425" x2="175" y2="387.425"/>
		<g>
			<path fill="#D13838" d="M104.691,390.925c-1.933,0-3.5-1.567-3.5-3.5c0-1.933,1.567-3.5,3.5-3.5c1.933,0,3.5,1.567,3.5,3.5
				C108.192,389.358,106.624,390.925,104.691,390.925z"/>
		</g>
	</g>
	<line fill="none" stroke="#999999" stroke-width="0.75" stroke-miterlimit="10" x1="84.808" y1="696.3" x2="96" y2="696.3"/>
	<line fill="none" stroke="#999999" stroke-width="0.75" stroke-miterlimit="10" x1="84.808" y1="718.362" x2="96" y2="718.362"/>
	<rect x="350.054" y="497" fill="#FFFFFF" width="20" height="16"/>
	<g>
		
			<line fill="none" stroke="#F89E99" stroke-width="1.33" stroke-miterlimit="10" stroke-dasharray="8,8" x1="103.516" y1="298.696" x2="400" y2="298.695"/>
		<g>
			<path fill="#F89E99" d="M103.691,302.196c-1.933,0-3.5-1.567-3.5-3.5c0-1.933,1.567-3.5,3.5-3.5c1.933,0,3.5,1.567,3.5,3.5
				S105.624,302.196,103.691,302.196z"/>
		</g>
	</g>
	
		<rect style="opacity:0.4;" x="13.4" y="455.833" transform="matrix(6.387693e-07 1 -1 6.387693e-07 555.262 374.0247)" fill="#44A6E0" width="154.437" height="17.622"/>
	<path fill="none" stroke="#79C0F7" stroke-width="0.75" stroke-miterlimit="10" d="M82,497.831c-12.983,0-21,11.606-21,22.169"/>
	<rect x="355.861" y="703" fill="#FFFFFF" width="56.457" height="19.869"/>
	<g>
		<path fill="none" stroke="#F89E99" stroke-width="1.33" stroke-miterlimit="10" stroke-dasharray="8,8" d="M171.296,210.133
			c-40.842,0-66.566,35.136-68.188,68.353"/>
		<g>
			<path fill="#F89E99" d="M99.695,278.148c-0.091,1.931,1.401,3.57,3.332,3.661c1.931,0.091,3.57-1.401,3.661-3.332
				c0.091-1.931-1.401-3.57-3.332-3.661C101.426,274.725,99.786,276.217,99.695,278.148z"/>
		</g>
	</g>
	<g>
		<path fill="none" stroke="#F89E99" stroke-width="1.33" stroke-miterlimit="10" stroke-dasharray="8,8" d="M174,488
			c-41.191,0-67.066-41.011-68.482-79.587"/>
		<g>
			<path fill="#F89E99" d="M109.097,408.443c-0.079-1.931-1.709-3.433-3.64-3.354c-1.931,0.079-3.433,1.709-3.354,3.64
				c0.079,1.931,1.709,3.433,3.64,3.354C107.674,412.004,109.176,410.374,109.097,408.443z"/>
		</g>
	</g>
	<rect x="220" y="51" fill="#FFFFFF" width="20" height="15"/>
</g>
<style>
#g-penn-desktop-img rect, #g-penn-desktop-img circle, #g-penn-desktop-img path, #g-penn-desktop-img line, #g-penn-desktop-img polyline { vector-effect: non-scaling-stroke; }
</style>
</svg>

