<?xml version="1.0" encoding="utf-8"?>
<!-- Generator: Adobe Illustrator 23.1.1, SVG Export Plug-In . SVG Version: 6.00 Build 0)  -->
<svg version="1.2" baseProfile="tiny" id="g-penn-desktop-img" xmlns="http://www.w3.org/2000/svg" xmlns:xlink="http://www.w3.org/1999/xlink"
	 x="0px" y="0px" viewBox="0 0 700 750" xml:space="preserve">
<g>
	
		<line style="opacity:0.2;" fill="none" stroke="#999999" stroke-width="0.75" stroke-miterlimit="10" x1="489.863" y1="725.326" x2="489.863" y2="53.053"/>
	
		<rect style="opacity:0.4;" x="-6.444" y="286.155" transform="matrix(4.966469e-07 1 -1 4.966469e-07 387.8377 202.0942)" fill="#BDE1FF" width="198.632" height="17.622"/>
	
		<line style="opacity:0.2;" fill="none" stroke="#999999" stroke-width="0.75" stroke-miterlimit="10" x1="618.239" y1="725.326" x2="618.239" y2="53.053"/>
	
		<line style="opacity:0.2;" fill="none" stroke="#999999" stroke-width="0.75" stroke-miterlimit="10" x1="233.11" y1="725.326" x2="233.11" y2="53.053"/>
	
		<line style="opacity:0.2;" fill="none" stroke="#999999" stroke-width="0.75" stroke-miterlimit="10" x1="361.487" y1="725.326" x2="361.487" y2="53.053"/>
	<polyline fill="#E6E6E6" points="104.746,63.345 104.746,85.413 104.746,107.482 104.746,129.551 104.746,151.62 104.907,173.689 
		104.988,195.739 105.069,217.808 105.31,239.877 105.391,261.945 105.632,284.014 105.874,306.083 106.84,328.152 107.162,350.221 
		108.29,372.289 108.934,394.358 109.981,416.427 111.914,438.496 114.33,460.565 118.598,482.633 124.719,504.702 130.598,526.771 
		137.846,548.84 148.477,570.909 163.859,592.977 191.482,615.046 218.622,637.115 249.225,659.184 281.359,681.253 
		318.002,703.321 355.006,725.22 104.746,725.948 104.746,85.413 	"/>
	<path fill="#E3DACB" stroke="#E3DACB" stroke-width="5" stroke-miterlimit="10" d="M152.035,214.59"/>
	<line fill="none" stroke="#999999" stroke-width="0.75" stroke-miterlimit="10" x1="87.253" y1="63.345" x2="98.253" y2="63.345"/>
	<line fill="none" stroke="#999999" stroke-width="0.75" stroke-miterlimit="10" x1="87.253" y1="85.407" x2="98.253" y2="85.407"/>
	<line fill="none" stroke="#999999" stroke-width="0.75" stroke-miterlimit="10" x1="87.253" y1="107.47" x2="98.253" y2="107.47"/>
	
		<line fill="none" stroke="#999999" stroke-width="0.75" stroke-miterlimit="10" x1="87.253" y1="129.532" x2="98.253" y2="129.532"/>
	
		<line fill="none" stroke="#999999" stroke-width="0.75" stroke-miterlimit="10" x1="87.253" y1="151.595" x2="98.253" y2="151.595"/>
	
		<line fill="none" stroke="#999999" stroke-width="0.75" stroke-miterlimit="10" x1="87.253" y1="173.657" x2="98.253" y2="173.657"/>
	<line fill="none" stroke="#999999" stroke-width="0.75" stroke-miterlimit="10" x1="87.061" y1="195.72" x2="98.253" y2="195.72"/>
	
		<line fill="none" stroke="#999999" stroke-width="0.75" stroke-miterlimit="10" x1="87.061" y1="217.782" x2="98.253" y2="217.782"/>
	<line fill="none" stroke="#999999" stroke-width="0.75" stroke-miterlimit="10" x1="87.061" y1="372.22" x2="98.253" y2="372.22"/>
	
		<line fill="none" stroke="#999999" stroke-width="0.75" stroke-miterlimit="10" x1="87.061" y1="394.282" x2="98.253" y2="394.282"/>
	
		<line fill="none" stroke="#999999" stroke-width="0.75" stroke-miterlimit="10" x1="87.061" y1="416.345" x2="98.253" y2="416.345"/>
	
		<line fill="none" stroke="#999999" stroke-width="0.75" stroke-miterlimit="10" x1="87.061" y1="438.407" x2="98.253" y2="438.407"/>
	<line fill="none" stroke="#999999" stroke-width="0.75" stroke-miterlimit="10" x1="87.061" y1="460.47" x2="98.253" y2="460.47"/>
	
		<line fill="none" stroke="#999999" stroke-width="0.75" stroke-miterlimit="10" x1="87.061" y1="482.532" x2="98.253" y2="482.532"/>
	
		<line fill="none" stroke="#999999" stroke-width="0.75" stroke-miterlimit="10" x1="87.061" y1="504.595" x2="98.253" y2="504.595"/>
	
		<line fill="none" stroke="#999999" stroke-width="0.75" stroke-miterlimit="10" x1="87.061" y1="526.657" x2="98.253" y2="526.657"/>
	<line fill="none" stroke="#999999" stroke-width="0.75" stroke-miterlimit="10" x1="87.061" y1="548.72" x2="98.253" y2="548.72"/>
	
		<line fill="none" stroke="#999999" stroke-width="0.75" stroke-miterlimit="10" x1="87.061" y1="570.782" x2="98.253" y2="570.782"/>
	
		<line fill="none" stroke="#999999" stroke-width="0.75" stroke-miterlimit="10" x1="87.061" y1="592.845" x2="98.253" y2="592.845"/>
	
		<line fill="none" stroke="#999999" stroke-width="0.75" stroke-miterlimit="10" x1="87.061" y1="614.907" x2="98.253" y2="614.907"/>
	<line fill="none" stroke="#999999" stroke-width="0.75" stroke-miterlimit="10" x1="87.061" y1="636.97" x2="98.253" y2="636.97"/>
	
		<line fill="none" stroke="#999999" stroke-width="0.75" stroke-miterlimit="10" x1="87.061" y1="659.032" x2="98.253" y2="659.032"/>
	
		<line fill="none" stroke="#999999" stroke-width="0.75" stroke-miterlimit="10" x1="87.061" y1="681.095" x2="98.253" y2="681.095"/>
	<g>
		
			<line fill="none" stroke="#D13838" stroke-width="1.33" stroke-miterlimit="10" x1="106.226" y1="394.282" x2="176" y2="394.282"/>
		<g>
			<path fill="#D13838" d="M106.401,397.782c-1.933,0-3.5-1.567-3.5-3.5s1.567-3.5,3.5-3.5c1.933,0,3.5,1.567,3.5,3.5
				S108.334,397.782,106.401,397.782z"/>
		</g>
	</g>
	
		<line fill="none" stroke="#999999" stroke-width="0.75" stroke-miterlimit="10" x1="87.061" y1="703.157" x2="98.253" y2="703.157"/>
	
		<line fill="none" stroke="#999999" stroke-width="0.75" stroke-miterlimit="10" x1="87.061" y1="725.22" x2="98.253" y2="725.219"/>
	<g>
		
			<line fill="none" stroke="#D13838" stroke-width="1.33" stroke-miterlimit="10" x1="105.769" y1="305.554" x2="176" y2="305.552"/>
		<g>
			<path fill="#D13838" d="M105.944,309.054c-1.933,0-3.5-1.567-3.5-3.5c0-1.933,1.567-3.5,3.5-3.5c1.933,0,3.5,1.567,3.5,3.5
				C109.444,307.487,107.877,309.054,105.944,309.054z"/>
		</g>
	</g>
	
		<rect style="opacity:0.4;" x="15.653" y="462.69" transform="matrix(6.387693e-07 1 -1 6.387693e-07 564.3726 378.6287)" fill="#44A6E0" width="154.437" height="17.622"/>
	<path fill="none" stroke="#79C0F7" stroke-width="0.75" stroke-miterlimit="10" d="M84.253,504.689c-12.983,0-21,11.606-21,22.169"
		/>
	<rect x="358.114" y="709.857" fill="#FFFFFF" width="56.457" height="19.869"/>
	<g>
		<path fill="none" stroke="#D13838" stroke-width="1.33" stroke-miterlimit="10" d="M172.634,237.925
			c-39.98-1.181-65.771,22.209-68.399,45.316"/>
		<g>
			<circle fill="#D13838" cx="104.274" cy="283.068" r="3.5"/>
		</g>
	</g>
	<rect x="222.253" y="57.857" fill="#FFFFFF" width="20" height="15"/>
	<rect x="488" y="295" fill="#FFFFFF" width="7" height="21"/>
	<rect x="358" y="381" fill="#FFFFFF" width="7" height="20"/>
	<g>
	</g>
	<g>
	</g>
	<g>
	</g>
	<rect x="205" y="230" fill="#FFFFFF" width="290" height="42"/>
	<rect x="208" y="296" fill="#FFFFFF" width="289" height="70"/>
	<rect x="210" y="386" fill="#FFFFFF" width="287" height="40"/>
</g>
<style>
#g-penn-desktop-img rect, #g-penn-desktop-img circle, #g-penn-desktop-img path, #g-penn-desktop-img line, #g-penn-desktop-img polyline { vector-effect: non-scaling-stroke; }
</style>
</svg>

