<?xml version="1.0" encoding="utf-8"?>
<!-- Generator: Adobe Illustrator 23.1.1, SVG Export Plug-In . SVG Version: 6.00 Build 0)  -->
<svg version="1.2" baseProfile="tiny" id="g-schools-mobile-img" xmlns="http://www.w3.org/2000/svg" xmlns:xlink="http://www.w3.org/1999/xlink"
	 x="0px" y="0px" viewBox="0 0 320 1000" xml:space="preserve">
<g>
	<g>
		
			<line fill="none" stroke="#F0B9B6" stroke-width="3" stroke-miterlimit="10" stroke-dasharray="8" x1="179.568" y1="125.409" x2="151.385" y2="125.409"/>
		<line fill="none" stroke="#B3B3B3" stroke-width="0.75" stroke-miterlimit="10" x1="183" y1="355.96" x2="201.439" y2="355.96"/>
		<path fill="none" stroke="#D0D2D3" stroke-width="2" stroke-miterlimit="10" d="M192.541,279.289"/>
		<path fill="none" stroke="#D0D2D3" stroke-width="2" stroke-miterlimit="10" d="M163.953,279.289"/>
		
			<line fill="none" stroke="#B3B3B3" stroke-width="0.75" stroke-miterlimit="10" x1="163.953" y1="432.665" x2="201.439" y2="432.665"/>
		<path fill="none" stroke="#D0D2D3" stroke-width="2" stroke-miterlimit="10" d="M193.567,125.538"/>
		<path fill="none" stroke="#F89E99" stroke-width="2" stroke-miterlimit="10" stroke-dasharray="8" d="M163.953,125.538"/>
		<path fill="none" stroke="#D0D2D3" stroke-width="2" stroke-miterlimit="10" d="M201.439,49.139"/>
		<path fill="none" stroke="#D0D2D3" stroke-width="2" stroke-miterlimit="10" d="M163.953,49.139"/>
		
			<line fill="none" stroke="#D0D2D3" stroke-width="2" stroke-miterlimit="10" x1="180.167" y1="202.549" x2="201.439" y2="202.549"/>
		
			<line fill="none" stroke="#B3B3B3" stroke-width="0.75" stroke-miterlimit="10" x1="163.953" y1="739.486" x2="201.439" y2="739.486"/>
		
			<line fill="none" stroke="#B3B3B3" stroke-width="0.75" stroke-miterlimit="10" x1="163.953" y1="509.668" x2="192.54" y2="509.668"/>
		
			<line fill="none" stroke="#B3B3B3" stroke-width="0.75" stroke-miterlimit="10" x1="183" y1="969.602" x2="201.439" y2="969.602"/>
		
			<line fill="none" stroke="#B3B3B3" stroke-width="0.75" stroke-miterlimit="10" x1="182.696" y1="969.602" x2="182.696" y2="49.139"/>
		
			<line fill="none" stroke="#B3B3B3" stroke-width="0.75" stroke-miterlimit="10" x1="163.953" y1="892.897" x2="201.439" y2="892.897"/>
		
			<line fill="none" stroke="#B3B3B3" stroke-width="0.75" stroke-miterlimit="10" x1="180.167" y1="586.076" x2="201.439" y2="586.076"/>
		<line fill="none" stroke="#B3B3B3" stroke-width="2" stroke-miterlimit="10" x1="183" y1="662.781" x2="201.439" y2="662.781"/>
		
			<line fill="none" stroke="#B3B3B3" stroke-width="0.75" stroke-miterlimit="10" x1="163.953" y1="816.191" x2="201.439" y2="816.191"/>
		
			<line fill="none" stroke="#F89E99" stroke-width="2" stroke-miterlimit="10" stroke-dasharray="8" x1="180.057" y1="49.143" x2="151.163" y2="49.143"/>
		
			<line fill="none" stroke="#F89E99" stroke-width="2" stroke-miterlimit="10" stroke-dasharray="8" x1="180.057" y1="202.549" x2="149" y2="202.549"/>
		
			<line fill="none" stroke="#F89E99" stroke-width="2" stroke-miterlimit="10" stroke-dasharray="8" x1="179.568" y1="279.595" x2="149" y2="279.595"/>
		<g>
			<line fill="none" stroke="#D13838" stroke-width="2" stroke-miterlimit="10" x1="184.057" y1="49.139" x2="210" y2="49.139"/>
			<g>
				<circle fill="#D13838" cx="184.433" cy="49.139" r="7.52"/>
			</g>
		</g>
		<g>
			<line fill="none" stroke="#D13838" stroke-width="2" stroke-miterlimit="10" x1="184.742" y1="125.844" x2="210" y2="125.844"/>
			<g>
				<circle fill="#D13838" cx="185.118" cy="125.844" r="7.52"/>
			</g>
		</g>
		<g>
			<line fill="none" stroke="#D13838" stroke-width="2" stroke-miterlimit="10" x1="184.057" y1="202.567" x2="210" y2="202.567"/>
			<g>
				<circle fill="#D13838" cx="184.433" cy="202.567" r="7.52"/>
			</g>
		</g>
		<g>
			<line fill="none" stroke="#D13838" stroke-width="2" stroke-miterlimit="10" x1="184.057" y1="432.665" x2="210" y2="432.665"/>
			<g>
				<circle fill="#D13838" cx="184.433" cy="432.665" r="7.52"/>
			</g>
		</g>
		<g>
			<line fill="none" stroke="#D13838" stroke-width="2" stroke-miterlimit="10" x1="184.057" y1="662.781" x2="210" y2="662.781"/>
			<g>
				<path fill="#D13838" d="M184.433,670.3c-4.152,0-7.52-3.367-7.52-7.52c0-4.152,3.367-7.52,7.52-7.52s7.519,3.367,7.519,7.52
					C191.953,666.933,188.586,670.3,184.433,670.3z"/>
			</g>
		</g>
		<g>
			<line fill="none" stroke="#D13838" stroke-width="2" stroke-miterlimit="10" x1="184.057" y1="969.602" x2="210" y2="969.602"/>
			<g>
				<path fill="#D13838" d="M184.433,977.122c-4.152,0-7.52-3.367-7.52-7.52s3.367-7.52,7.52-7.52s7.519,3.367,7.519,7.52
					S188.586,977.122,184.433,977.122z"/>
			</g>
		</g>
		<g>
			<line fill="none" stroke="#D13838" stroke-width="2" stroke-miterlimit="10" x1="184.742" y1="279.289" x2="210" y2="279.289"/>
			<g>
				<circle fill="#D13838" cx="185.118" cy="279.289" r="7.52"/>
			</g>
		</g>
		<g>
			<line fill="none" stroke="#D13838" stroke-width="2" stroke-miterlimit="10" x1="184.742" y1="509.359" x2="210" y2="509.359"/>
			<g>
				<circle fill="#D13838" cx="185.118" cy="509.359" r="7.52"/>
			</g>
		</g>
		<g>
			
				<line fill="none" stroke="#F89E99" stroke-width="2" stroke-miterlimit="10" stroke-dasharray="8,8" x1="153" y1="586.076" x2="180.913" y2="586.076"/>
			<g>
				<circle fill="#F89E99" cx="180.537" cy="586.076" r="7.52"/>
			</g>
		</g>
	</g>
	<g>
		<path fill="none" stroke="#F89E99" stroke-width="2" stroke-miterlimit="10" stroke-dasharray="8,8" d="M151,401.963
			c18.581,0,30.558-15.263,32.159-45.426"/>
		<g>
			<path fill="#F89E99" d="M190.631,357.135c0.126-4.151-3.138-7.618-7.288-7.744c-4.151-0.126-7.618,3.138-7.744,7.288
				c-0.126,4.15,3.138,7.618,7.288,7.744C187.037,364.549,190.505,361.285,190.631,357.135z"/>
		</g>
	</g>
</g>
<style>
#g-schools-mobile-img rect, #g-schools-mobile-img circle, #g-schools-mobile-img path, #g-schools-mobile-img line, #g-schools-mobile-img polyline { vector-effect: non-scaling-stroke; }
</style>
</svg>

