<?xml version="1.0" encoding="utf-8"?>
<!-- Generator: Adobe Illustrator 23.1.1, SVG Export Plug-In . SVG Version: 6.00 Build 0)  -->
<svg version="1.2" baseProfile="tiny" id="g-schools-mobile-img" xmlns="http://www.w3.org/2000/svg" xmlns:xlink="http://www.w3.org/1999/xlink"
	 x="0px" y="0px" viewBox="0 0 320 750" xml:space="preserve">
<g>
	<g>
		
			<line fill="none" stroke="#F0B9B6" stroke-width="3" stroke-miterlimit="10" stroke-dasharray="8" x1="179.568" y1="100.213" x2="151.385" y2="100.213"/>
		
			<line fill="none" stroke="#B3B3B3" stroke-width="0.75" stroke-miterlimit="10" x1="183" y1="267.916" x2="201.439" y2="267.916"/>
		<path fill="none" stroke="#D0D2D3" stroke-width="2" stroke-miterlimit="10" d="M192.541,212.146"/>
		<path fill="none" stroke="#D0D2D3" stroke-width="2" stroke-miterlimit="10" d="M163.953,212.146"/>
		
			<line fill="none" stroke="#B3B3B3" stroke-width="0.75" stroke-miterlimit="10" x1="163.953" y1="323.711" x2="201.439" y2="323.711"/>
		<path fill="none" stroke="#D0D2D3" stroke-width="2" stroke-miterlimit="10" d="M193.567,100.307"/>
		<path fill="none" stroke="#D0D2D3" stroke-width="2" stroke-miterlimit="10" d="M163.953,100.307"/>
		<path fill="none" stroke="#D0D2D3" stroke-width="2" stroke-miterlimit="10" d="M201.439,44.734"/>
		<path fill="none" stroke="#D0D2D3" stroke-width="2" stroke-miterlimit="10" d="M163.953,44.734"/>
		
			<line fill="none" stroke="#D0D2D3" stroke-width="2" stroke-miterlimit="10" x1="180.167" y1="156.325" x2="201.439" y2="156.325"/>
		
			<line fill="none" stroke="#B3B3B3" stroke-width="0.75" stroke-miterlimit="10" x1="163.953" y1="546.893" x2="201.439" y2="546.893"/>
		
			<line fill="none" stroke="#B3B3B3" stroke-width="0.75" stroke-miterlimit="10" x1="163.953" y1="379.723" x2="192.54" y2="379.723"/>
		
			<line fill="none" stroke="#B3B3B3" stroke-width="0.75" stroke-miterlimit="10" x1="183" y1="714.279" x2="201.439" y2="714.279"/>
		
			<line fill="none" stroke="#B3B3B3" stroke-width="0.75" stroke-miterlimit="10" x1="182.696" y1="714.279" x2="182.696" y2="44.734"/>
		
			<line fill="none" stroke="#B3B3B3" stroke-width="0.75" stroke-miterlimit="10" x1="163.953" y1="658.484" x2="201.439" y2="658.484"/>
		
			<line fill="none" stroke="#B3B3B3" stroke-width="0.75" stroke-miterlimit="10" x1="180.167" y1="435.302" x2="201.439" y2="435.302"/>
		
			<line fill="none" stroke="#B3B3B3" stroke-width="0.75" stroke-miterlimit="10" x1="183" y1="491.098" x2="201.439" y2="491.098"/>
		
			<line fill="none" stroke="#B3B3B3" stroke-width="0.75" stroke-miterlimit="10" x1="163.953" y1="602.689" x2="201.439" y2="602.689"/>
		
			<line fill="none" stroke="#F0B9B6" stroke-width="3" stroke-miterlimit="10" stroke-dasharray="8" x1="180.057" y1="44.738" x2="151.163" y2="44.738"/>
		
			<line fill="none" stroke="#F0B9B6" stroke-width="3" stroke-miterlimit="10" stroke-dasharray="8" x1="180.057" y1="156.325" x2="149" y2="156.325"/>
		
			<line fill="none" stroke="#F0B9B6" stroke-width="3" stroke-miterlimit="10" stroke-dasharray="8" x1="179.568" y1="212.368" x2="149" y2="212.368"/>
		<g>
			<line fill="none" stroke="#D13838" stroke-width="3" stroke-miterlimit="10" x1="182.271" y1="44.734" x2="210" y2="44.734"/>
			<g>
				<circle fill="#D13838" cx="182.553" cy="44.734" r="5.64"/>
			</g>
		</g>
		<g>
			<line fill="none" stroke="#D13838" stroke-width="3" stroke-miterlimit="10" x1="182.956" y1="100.53" x2="210" y2="100.53"/>
			<g>
				<circle fill="#D13838" cx="183.238" cy="100.53" r="5.64"/>
			</g>
		</g>
		<g>
			<line fill="none" stroke="#D13838" stroke-width="3" stroke-miterlimit="10" x1="182.271" y1="156.338" x2="210" y2="156.338"/>
			<g>
				<circle fill="#D13838" cx="182.553" cy="156.338" r="5.64"/>
			</g>
		</g>
		<g>
			<line fill="none" stroke="#D13838" stroke-width="3" stroke-miterlimit="10" x1="182.271" y1="323.711" x2="210" y2="323.711"/>
			<g>
				<circle fill="#D13838" cx="182.553" cy="323.711" r="5.64"/>
			</g>
		</g>
		<g>
			<line fill="none" stroke="#D13838" stroke-width="3" stroke-miterlimit="10" x1="182.271" y1="491.098" x2="210" y2="491.098"/>
			<g>
				<path fill="#D13838" d="M182.553,496.737c-3.114,0-5.64-2.525-5.64-5.64s2.526-5.64,5.64-5.64s5.64,2.525,5.64,5.64
					S185.668,496.737,182.553,496.737z"/>
			</g>
		</g>
		<g>
			<line fill="none" stroke="#D13838" stroke-width="3" stroke-miterlimit="10" x1="182.271" y1="714.279" x2="210" y2="714.279"/>
			<g>
				<path fill="#D13838" d="M182.553,719.919c-3.114,0-5.64-2.525-5.64-5.64s2.526-5.64,5.64-5.64s5.64,2.525,5.64,5.64
					S185.668,719.919,182.553,719.919z"/>
			</g>
		</g>
		<g>
			<line fill="none" stroke="#D13838" stroke-width="3" stroke-miterlimit="10" x1="182.956" y1="212.146" x2="210" y2="212.146"/>
			<g>
				<circle fill="#D13838" cx="183.238" cy="212.146" r="5.64"/>
			</g>
		</g>
		<g>
			<line fill="none" stroke="#D13838" stroke-width="3" stroke-miterlimit="10" x1="182.956" y1="379.499" x2="210" y2="379.499"/>
			<g>
				<circle fill="#D13838" cx="183.238" cy="379.499" r="5.64"/>
			</g>
		</g>
		<g>
			
				<line fill="none" stroke="#F0B9B6" stroke-width="3" stroke-miterlimit="10" stroke-dasharray="8,8" x1="153" y1="435.302" x2="182.699" y2="435.302"/>
			<g>
				<circle fill="#F0B9B6" cx="182.417" cy="435.302" r="5.64"/>
			</g>
		</g>
	</g>
	<g>
		<path fill="none" stroke="#F0B9B6" stroke-width="3" stroke-miterlimit="10" stroke-dasharray="8,8" d="M150,314
			c18.892,0,30.956-15.036,32.231-44.746"/>
		<g>
			<path fill="#F0B9B6" d="M187.847,269.668c0.074-3.113-2.391-5.698-5.504-5.772c-3.113-0.074-5.698,2.391-5.772,5.504
				c-0.074,3.113,2.391,5.698,5.504,5.772C185.188,275.246,187.773,272.781,187.847,269.668z"/>
		</g>
	</g>
</g>
<style>
#g-schools-mobile-img rect, #g-schools-mobile-img circle, #g-schools-mobile-img path, #g-schools-mobile-img line, #g-schools-mobile-img polyline { vector-effect: non-scaling-stroke; }
</style>
</svg>

