<?xml version="1.0" encoding="utf-8"?>
<!-- Generator: Adobe Illustrator 24.1.0, SVG Export Plug-In . SVG Version: 6.00 Build 0)  -->
<svg version="1.2" baseProfile="tiny" id="g-columbia-desktop-img" xmlns="http://www.w3.org/2000/svg" xmlns:xlink="http://www.w3.org/1999/xlink"
	 x="0px" y="0px" viewBox="0 0 700 750" xml:space="preserve">
<g>
	
		<line style="opacity:0.2;" fill="none" stroke="#999999" stroke-width="0.75" stroke-miterlimit="10" x1="612.415" y1="721.849" x2="612.415" y2="48.255"/>
	
		<line style="opacity:0.2;" fill="none" stroke="#999999" stroke-width="0.75" stroke-miterlimit="10" x1="227.18" y1="721.849" x2="227.18" y2="48.255"/>
	<rect x="591.53" y="705.923" fill="#FFFFFF" width="56.457" height="20.753"/>
	
		<line style="opacity:0.2;" fill="none" stroke="#999999" stroke-width="0.75" stroke-miterlimit="10" x1="355.592" y1="721.849" x2="355.592" y2="48.255"/>
	
		<line style="opacity:0.2;" fill="none" stroke="#999999" stroke-width="0.75" stroke-miterlimit="10" x1="484.003" y1="721.849" x2="484.003" y2="48.255"/>
	
		<rect style="opacity:0.4;" x="-11.788" y="438.82" transform="matrix(-4.664108e-08 1 -1 -4.664108e-08 532.8714 358.1664)" fill="#BDE1FF" width="198.281" height="13.397"/>
	<polyline fill="#E6E6E6" points="98.784,59.576 98.784,81.591 98.794,103.605 98.847,125.62 98.921,147.634 99.058,169.649 
		99.344,191.645 99.46,213.66 99.692,235.675 99.882,257.689 100.168,279.704 100.865,301.718 101.478,323.733 102.692,345.748 
		103.474,367.762 104.879,389.777 107.594,411.791 114.07,433.806 125.426,455.821 144.367,477.835 165.251,499.85 196.14,521.864 
		232.775,543.879 263.515,565.894 311.021,587.908 349.029,609.923 385.284,631.938 441.304,653.952 481.13,675.967 
		529.955,697.981 585.531,720.848 98.784,720.848 98.784,142.941 	"/>
	<path style="opacity:0.4;" fill="none" stroke="#44A6E0" stroke-width="0.75" stroke-miterlimit="10" d="M80.836,272.671
		c-12.505,0-20.227,8.595-20.227,16.417"/>
	
		<path fill="#E3DACB" stroke="#E3DACB" stroke-width="5" stroke-linecap="round" stroke-linejoin="round" stroke-miterlimit="10" d="
		M150.095,223.025"/>
	<line fill="none" stroke="#999999" stroke-width="0.75" stroke-miterlimit="10" x1="83.107" y1="60.018" x2="91.92" y2="60.018"/>
	<line fill="none" stroke="#999999" stroke-width="0.75" stroke-miterlimit="10" x1="83.107" y1="82.046" x2="91.92" y2="82.046"/>
	
		<line fill="none" stroke="#999999" stroke-width="0.75" stroke-miterlimit="10" x1="83.107" y1="104.074" x2="91.92" y2="104.074"/>
	
		<line fill="none" stroke="#999999" stroke-width="0.75" stroke-miterlimit="10" x1="83.107" y1="126.101" x2="91.92" y2="126.101"/>
	
		<line fill="none" stroke="#999999" stroke-width="0.75" stroke-miterlimit="10" x1="83.107" y1="148.129" x2="91.921" y2="148.129"/>
	
		<line fill="none" stroke="#999999" stroke-width="0.75" stroke-miterlimit="10" x1="83.107" y1="170.157" x2="91.921" y2="170.157"/>
	
		<line fill="none" stroke="#999999" stroke-width="0.75" stroke-miterlimit="10" x1="83.107" y1="192.184" x2="91.921" y2="192.184"/>
	
		<line fill="none" stroke="#999999" stroke-width="0.75" stroke-miterlimit="10" x1="83.107" y1="214.212" x2="91.921" y2="214.212"/>
	<line fill="none" stroke="#999999" stroke-width="0.75" stroke-miterlimit="10" x1="83.107" y1="236.24" x2="91.921" y2="236.24"/>
	
		<line fill="none" stroke="#999999" stroke-width="0.75" stroke-miterlimit="10" x1="83.107" y1="258.267" x2="91.921" y2="258.267"/>
	
		<line fill="none" stroke="#999999" stroke-width="0.75" stroke-miterlimit="10" x1="83.107" y1="280.295" x2="91.921" y2="280.295"/>
	
		<line fill="none" stroke="#999999" stroke-width="0.75" stroke-miterlimit="10" x1="83.107" y1="302.323" x2="91.921" y2="302.323"/>
	<line fill="none" stroke="#999999" stroke-width="0.75" stroke-miterlimit="10" x1="83.107" y1="324.35" x2="91.921" y2="324.35"/>
	
		<line fill="none" stroke="#999999" stroke-width="0.75" stroke-miterlimit="10" x1="83.107" y1="632.738" x2="91.921" y2="632.738"/>
	
		<line fill="none" stroke="#999999" stroke-width="0.75" stroke-miterlimit="10" x1="83.107" y1="654.765" x2="91.921" y2="654.765"/>
	
		<line fill="none" stroke="#999999" stroke-width="0.75" stroke-miterlimit="10" x1="83.107" y1="676.793" x2="91.921" y2="676.793"/>
	
		<line fill="none" stroke="#999999" stroke-width="0.75" stroke-miterlimit="10" x1="83.107" y1="698.821" x2="91.921" y2="698.821"/>
	
		<line fill="none" stroke="#999999" stroke-width="0.75" stroke-miterlimit="10" x1="83.107" y1="720.848" x2="91.921" y2="720.848"/>
	<path style="opacity:0.4;" fill="none" stroke="#44A6E0" stroke-width="0.75" stroke-miterlimit="10" d="M80.669,603.465
		c-12.402,0-20.06,11.617-20.06,22.189"/>
	
		<rect style="opacity:0.4;" x="65.325" y="251.569" transform="matrix(1.702376e-06 1 -1 1.702376e-06 345.62 170.9146)" fill="#44A6E0" width="44.055" height="13.397"/>
	
		<line fill="none" stroke="#999999" stroke-width="0.75" stroke-miterlimit="10" x1="82.946" y1="544.627" x2="91.759" y2="544.627"/>
	
		<line fill="none" stroke="#999999" stroke-width="0.75" stroke-miterlimit="10" x1="82.946" y1="566.655" x2="91.759" y2="566.655"/>
	
		<line fill="none" stroke="#999999" stroke-width="0.75" stroke-miterlimit="10" x1="82.946" y1="588.682" x2="91.759" y2="588.682"/>
	<line fill="none" stroke="#999999" stroke-width="0.75" stroke-miterlimit="10" x1="82.946" y1="610.71" x2="91.759" y2="610.71"/>
	
		<line fill="none" stroke="#999999" stroke-width="0.75" stroke-miterlimit="10" x1="82.946" y1="632.738" x2="91.759" y2="632.738"/>
	
		<rect style="opacity:0.4;" x="54.286" y="570.994" transform="matrix(7.091620e-07 1 -1 7.091620e-07 665.0445 490.3391)" fill="#44A6E0" width="66.133" height="13.397"/>
	<line fill="none" stroke="#999999" stroke-width="0.75" stroke-miterlimit="10" x1="82.946" y1="346.35" x2="91.759" y2="346.35"/>
	<line fill="none" stroke="#999999" stroke-width="0.75" stroke-miterlimit="10" x1="83.026" y1="368.35" x2="91.84" y2="368.35"/>
	
		<line fill="none" stroke="#999999" stroke-width="0.75" stroke-miterlimit="10" x1="83.026" y1="522.627" x2="91.84" y2="522.627"/>
	<g>
		<rect x="214.459" y="442.022" fill="#FFFFFF" width="24.111" height="47.535"/>
		<g>
			
				<line fill="none" stroke="#D13838" stroke-width="3" stroke-miterlimit="10" x1="100.79" y1="434.488" x2="153.129" y2="434.488"/>
			<g>
				
					<ellipse transform="matrix(0.9616 -0.2746 0.2746 0.9616 -115.4264 44.4407)" fill="#D13838" cx="101.015" cy="434.488" rx="4.512" ry="4.512"/>
			</g>
		</g>
	</g>
	<g>
		<g>
			<g>
				
					<line fill="none" stroke="#D13838" stroke-width="3" stroke-miterlimit="10" stroke-dasharray="8,8" x1="100.791" y1="478.546" x2="103.837" y2="478.546"/>
				<g>
					<path fill="#D13838" d="M101.015,483.057c-2.491-0.001-4.511-2.021-4.511-4.513c0.001-2.491,2.021-4.511,4.513-4.511
						c2.491,0.001,4.511,2.021,4.511,4.513S103.507,483.058,101.015,483.057z"/>
				</g>
			</g>
			
				
			<path fill="none" stroke="#D13838" stroke-width="3" stroke-miterlimit="10" stroke-dasharray="8" d="M172.328,552.675
				c-43.581,0-70.491-37.35-70.491-71.342"/>
		</g>
	</g>
	<g>
		<rect x="474.948" y="358.221" fill="#FFFFFF" width="24.111" height="34.548"/>
		<rect x="345.676" y="376.495" fill="#FFFFFF" width="24.111" height="33.616"/>
		<g>
			
				<line fill="none" stroke="#D13838" stroke-width="3" stroke-miterlimit="10" x1="100.79" y1="368.405" x2="235.845" y2="368.405"/>
			<g>
				<path fill="#D13838" d="M101.016,372.917c-2.491,0-4.512-2.02-4.512-4.512s2.02-4.512,4.512-4.512
					c2.491,0,4.512,2.02,4.512,4.512C105.527,370.897,103.507,372.917,101.016,372.917z"/>
			</g>
		</g>
		<g>
			
				<line fill="none" stroke="#D13838" stroke-width="3" stroke-miterlimit="10" stroke-dasharray="8,8" x1="303.576" y1="368.405" x2="424.982" y2="368.405"/>
			<g>
				<circle fill="#D13838" cx="303.582" cy="368.405" r="0.113"/>
			</g>
		</g>
	</g>
	<g>
		<rect x="345.676" y="312.576" fill="#FFFFFF" width="24.111" height="32.626"/>
		<g>
			
				<line fill="none" stroke="#D13838" stroke-width="3" stroke-miterlimit="10" stroke-dasharray="8,8" x1="100.791" y1="303.66" x2="287.49" y2="303.655"/>
			<g>
				<path fill="#D13838" d="M101.017,308.172c-2.491,0-4.512-2.02-4.512-4.512c0-2.491,2.02-4.512,4.512-4.512
					c2.491,0,4.512,2.02,4.512,4.512S103.508,308.172,101.017,308.172z"/>
			</g>
		</g>
	</g>
	<g>
		<g class="March8" id="March8">
			
				<line fill="none" stroke="#D13838" stroke-width="3" stroke-miterlimit="10" x1="98.79" y1="214.212" x2="101.214" y2="214.212"/>
			<g>
				<path fill="#D13838" d="M99.016,218.724c-2.491,0-4.512-2.02-4.512-4.512c0-2.491,2.02-4.512,4.512-4.512
					c2.491,0,4.512,2.02,4.512,4.512C103.527,216.703,101.507,218.723,99.016,218.724z"/>
			</g>
		</g>
		<rect class="March8" id="March8" x="171.188" y="96.609" fill="#FFFFFF" width="123.295" height="81.64"/>
		<rect class="March8" x="394.668" y="104.61" fill="#FFFFFF" width="108.294" height="66.95"/>
		<path class="March8" id="March8" fill="none" stroke="#D13838" stroke-width="3" stroke-miterlimit="10" d="M169.309,140.085
			c-43.581,0-70.491,37.35-70.491,71.342"/>
		<g class="March8" id="March8">
			
				<line fill="none" stroke="#D13838" stroke-width="3" stroke-miterlimit="10" stroke-dasharray="8,8" x1="299.536" y1="140.085" x2="393.669" y2="140.085"/>
			<g>
				<path fill="#D13838" d="M299.542,140.198c-0.062,0-0.113-0.051-0.113-0.113s0.051-0.113,0.113-0.113
					c0.062,0,0.113,0.051,0.113,0.113S299.604,140.198,299.542,140.198z"/>
			</g>
		</g>
	</g>
	<g>
		<rect x="215.688" y="233.678" fill="#FFFFFF" width="24.111" height="47.202"/>
		<rect x="410.803" y="239.861" fill="#FFFFFF" width="108.294" height="38.072"/>
		<g>
			<g>
				
					<line fill="none" stroke="#D13838" stroke-width="3" stroke-miterlimit="10" x1="98.791" y1="258.011" x2="144.262" y2="258.011"/>
				<g>
					<path fill="#D13838" d="M99.016,262.523c-2.491,0-4.512-2.02-4.512-4.512c0-2.491,2.02-4.512,4.512-4.512
						c2.491,0,4.512,2.02,4.512,4.512S101.508,262.523,99.016,262.523z"/>
				</g>
			</g>
			<g display="none">
				
					<text transform="matrix(1 0 0 1 151.446 228.8796)" display="inline" fill="#D13838" font-family="'Roboto-Bold'" font-size="12px">M</text>
				
					<text transform="matrix(1 0 0 1 161.9577 228.8796)" display="inline" fill="#D13838" font-family="'Roboto-Bold'" font-size="12px">a</text>
				
					<text transform="matrix(1 0 0 1 168.3913 228.8796)" display="inline" fill="#D13838" font-family="'Roboto-Bold'" font-size="12px">r</text>
				
					<text transform="matrix(1 0 0 1 172.6569 228.8796)" display="inline" fill="#D13838" font-family="'Roboto-Bold'" font-size="12px">c</text>
				
					<text transform="matrix(1 0 0 1 178.9147 228.8796)" display="inline" fill="#D13838" font-family="'Roboto-Bold'" font-size="12px">h</text>
				
					<text transform="matrix(1 0 0 1 185.6296 228.8796)" display="inline" fill="#D13838" font-family="'Roboto-Bold'" font-size="12px"> </text>
				
					<text transform="matrix(1 0 0 1 188.6179 228.8796)" display="inline" fill="#D13838" font-family="'Roboto-Bold'" font-size="12px">1</text>
				
					<text transform="matrix(1 0 0 1 195.5026 228.8796)" display="inline" fill="#D13838" font-family="'Roboto-Bold'" font-size="12px">0</text>
			</g>
			<g>
				
					<line fill="none" stroke="#D13838" stroke-width="3" stroke-miterlimit="10" stroke-dasharray="8,8" x1="281.436" y1="257.897" x2="371.816" y2="257.897"/>
				<g>
					<circle fill="#D13838" cx="281.442" cy="257.897" r="0.113"/>
				</g>
			</g>
			<g display="none">
				
					<text transform="matrix(1 0 0 1 378.1321 254.9517)" display="inline" fill="#231F20" font-family="'Roboto-Regular'" font-size="12px">V</text>
				
					<text transform="matrix(1 0 0 1 385.5267 254.9517)" display="inline" fill="#231F20" font-family="'Roboto-Regular'" font-size="12px">i</text>
				
					<text transform="matrix(1 0 0 1 388.1985 254.9517)" display="inline" fill="#231F20" font-family="'Roboto-Regular'" font-size="12px">r</text>
				
					<text transform="matrix(1 0 0 1 392.3128 254.9517)" display="inline" fill="#231F20" font-family="'Roboto-Regular'" font-size="12px">t</text>
				
					<text transform="matrix(1 0 0 1 395.9925 254.9517)" display="inline" fill="#231F20" font-family="'Roboto-Regular'" font-size="12px">u</text>
				
					<text transform="matrix(1 0 0 1 402.3675 254.9517)" display="inline" fill="#231F20" font-family="'Roboto-Regular'" font-size="12px">a</text>
				
					<text transform="matrix(1 0 0 1 408.6546 254.9517)" display="inline" fill="#231F20" font-family="'Roboto-Regular'" font-size="12px">l</text>
				
					<text transform="matrix(1 0 0 1 411.3275 254.9517)" display="inline" fill="#231F20" font-family="'Roboto-Regular'" font-size="12px"> </text>
				
					<text transform="matrix(1 0 0 1 414.0579 254.9517)" display="inline" fill="#231F20" font-family="'Roboto-Regular'" font-size="12px">c</text>
				
					<text transform="matrix(1 0 0 1 420.0989 254.9517)" display="inline" fill="#231F20" font-family="'Roboto-Regular'" font-size="12px">l</text>
				
					<text transform="matrix(1 0 0 1 422.7708 254.9517)" display="inline" fill="#231F20" font-family="'Roboto-Regular'" font-size="12px">a</text>
				
					<text transform="matrix(1 0 0 1 429.0589 254.9517)" display="inline" fill="#231F20" font-family="'Roboto-Regular'" font-size="12px">s</text>
				
					<text transform="matrix(1 0 0 1 435.0062 254.9517)" display="inline" fill="#231F20" font-family="'Roboto-Regular'" font-size="12px">s</text>
				
					<text transform="matrix(1 0 0 1 440.9534 254.9517)" display="inline" fill="#231F20" font-family="'Roboto-Regular'" font-size="12px">e</text>
				
					<text transform="matrix(1 0 0 1 447.0706 254.9517)" display="inline" fill="#231F20" font-family="'Roboto-Regular'" font-size="12px">s</text>
				
					<text transform="matrix(1 0 0 1 453.0189 254.9517)" display="inline" fill="#231F20" font-family="'Roboto-Regular'" font-size="12px"> </text>
				
					<text transform="matrix(1 0 0 1 455.7493 254.9517)" display="inline" fill="#231F20" font-family="'Roboto-Regular'" font-size="12px">t</text>
				
					<text transform="matrix(1 0 0 1 459.429 254.9517)" display="inline" fill="#231F20" font-family="'Roboto-Regular'" font-size="12px">h</text>
				
					<text transform="matrix(1 0 0 1 465.7982 254.9517)" display="inline" fill="#231F20" font-family="'Roboto-Regular'" font-size="12px">r</text>
				
					<text transform="matrix(1 0 0 1 469.5023 254.9517)" display="inline" fill="#231F20" font-family="'Roboto-Regular'" font-size="12px">o</text>
				
					<text transform="matrix(1 0 0 1 476.1058 254.9517)" display="inline" fill="#231F20" font-family="'Roboto-Regular'" font-size="12px">u</text>
				
					<text transform="matrix(1 0 0 1 482.4808 254.9517)" display="inline" fill="#231F20" font-family="'Roboto-Regular'" font-size="12px">g</text>
				
					<text transform="matrix(1 0 0 1 488.973 254.9517)" display="inline" fill="#231F20" font-family="'Roboto-Regular'" font-size="12px">h</text>
				
					<text transform="matrix(1 0 0 1 495.3431 254.9517)" display="inline" fill="#231F20" font-family="'Roboto-Regular'" font-size="12px"> </text>
				
					<text transform="matrix(1 0 0 1 378.1321 269.3516)" display="inline" fill="#231F20" font-family="'Roboto-Regular'" font-size="12px">M</text>
				
					<text transform="matrix(1 0 0 1 388.3685 269.3516)" display="inline" fill="#231F20" font-family="'Roboto-Regular'" font-size="12px">a</text>
				
					<text transform="matrix(1 0 0 1 394.6556 269.3516)" display="inline" fill="#231F20" font-family="'Roboto-Regular'" font-size="12px">r</text>
				
					<text transform="matrix(1 0 0 1 398.3655 269.3516)" display="inline" fill="#231F20" font-family="'Roboto-Regular'" font-size="12px">c</text>
				
					<text transform="matrix(1 0 0 1 404.4066 269.3516)" display="inline" fill="#231F20" font-family="'Roboto-Regular'" font-size="12px">h</text>
				
					<text transform="matrix(1 0 0 1 410.7757 269.3516)" display="inline" fill="#231F20" font-family="'Roboto-Regular'" font-size="12px"> </text>
				
					<text transform="matrix(1 0 0 1 413.5062 269.3516)" display="inline" fill="#231F20" font-family="'Roboto-Regular'" font-size="12px">2</text>
				
					<text transform="matrix(1 0 0 1 420.0052 269.3516)" display="inline" fill="#231F20" font-family="'Roboto-Regular'" font-size="12px">7</text>
				
					<text transform="matrix(1 0 0 1 426.5032 269.3516)" display="inline" fill="#231F20" font-family="'Roboto-Regular'" font-size="12px"> </text>
				
					<text transform="matrix(1 0 0 1 429.2337 269.3516)" display="inline" fill="#231F20" font-family="'Roboto-Regular'" font-size="12px">a</text>
				
					<text transform="matrix(1 0 0 1 435.5208 269.3516)" display="inline" fill="#231F20" font-family="'Roboto-Regular'" font-size="12px">r</text>
				
					<text transform="matrix(1 0 0 1 439.3421 269.3516)" display="inline" fill="#231F20" font-family="'Roboto-Regular'" font-size="12px">e</text>
				
					<text transform="matrix(1 0 0 1 445.4593 269.3516)" display="inline" fill="#231F20" font-family="'Roboto-Regular'" font-size="12px"> </text>
				
					<text transform="matrix(1 0 0 1 448.1898 269.3516)" display="inline" fill="#231F20" font-family="'Roboto-Regular'" font-size="12px">a</text>
				
					<text transform="matrix(1 0 0 1 454.4769 269.3516)" display="inline" fill="#231F20" font-family="'Roboto-Regular'" font-size="12px">n</text>
				
					<text transform="matrix(1 0 0 1 460.8587 269.3516)" display="inline" fill="#231F20" font-family="'Roboto-Regular'" font-size="12px">n</text>
				
					<text transform="matrix(1 0 0 1 467.2396 269.3516)" display="inline" fill="#231F20" font-family="'Roboto-Regular'" font-size="12px">o</text>
				
					<text transform="matrix(1 0 0 1 473.8431 269.3516)" display="inline" fill="#231F20" font-family="'Roboto-Regular'" font-size="12px">u</text>
				
					<text transform="matrix(1 0 0 1 480.2181 269.3516)" display="inline" fill="#231F20" font-family="'Roboto-Regular'" font-size="12px">n</text>
				
					<text transform="matrix(1 0 0 1 486.5999 269.3516)" display="inline" fill="#231F20" font-family="'Roboto-Regular'" font-size="12px">c</text>
				
					<text transform="matrix(1 0 0 1 492.6409 269.3516)" display="inline" fill="#231F20" font-family="'Roboto-Regular'" font-size="12px">e</text>
				
					<text transform="matrix(1 0 0 1 498.7581 269.3516)" display="inline" fill="#231F20" font-family="'Roboto-Regular'" font-size="12px">d</text>
				
					<text transform="matrix(1 0 0 1 505.2855 269.3516)" display="inline" fill="#231F20" font-family="'Roboto-Regular'" font-size="12px">.</text>
			</g>
			<rect x="151.351" y="236.914" fill="none" width="129.978" height="55.047"/>
			<g display="none">
				
					<text transform="matrix(1 0 0 1 151.3516 245.9141)" display="inline" fill="#231F20" font-family="'Roboto-Regular'" font-size="12px">T</text>
				
					<text transform="matrix(1 0 0 1 158.2715 245.9141)" display="inline" fill="#231F20" font-family="'Roboto-Regular'" font-size="12px">h</text>
				
					<text transform="matrix(1 0 0 1 164.6406 245.9141)" display="inline" fill="#231F20" font-family="'Roboto-Regular'" font-size="12px">e</text>
				
					<text transform="matrix(1 0 0 1 170.7588 245.9141)" display="inline" fill="#231F20" font-family="'Roboto-Regular'" font-size="12px"> </text>
				
					<text transform="matrix(1 0 0 1 173.4893 245.9141)" display="inline" fill="#231F20" font-family="'Roboto-Regular'" font-size="12px">c</text>
				
					<text transform="matrix(1 0 0 1 179.5303 245.9141)" display="inline" fill="#231F20" font-family="'Roboto-Regular'" font-size="12px">o</text>
				
					<text transform="matrix(1 0 0 1 186.1338 245.9141)" display="inline" fill="#231F20" font-family="'Roboto-Regular'" font-size="12px">m</text>
				
					<text transform="matrix(1 0 0 1 196.4121 245.9141)" display="inline" fill="#231F20" font-family="'Roboto-Regular'" font-size="12px">m</text>
				
					<text transform="matrix(1 0 0 1 206.6895 245.9141)" display="inline" fill="#231F20" font-family="'Roboto-Regular'" font-size="12px">u</text>
				
					<text transform="matrix(1 0 0 1 213.0645 245.9141)" display="inline" fill="#231F20" font-family="'Roboto-Regular'" font-size="12px">n</text>
				
					<text transform="matrix(1 0 0 1 219.4453 245.9141)" display="inline" fill="#231F20" font-family="'Roboto-Regular'" font-size="12px">i</text>
				
					<text transform="matrix(1 0 0 1 222.1182 245.9141)" display="inline" fill="#231F20" font-family="'Roboto-Regular'" font-size="12px">t</text>
				
					<text transform="matrix(1 0 0 1 225.7979 245.9141)" display="inline" fill="#231F20" font-family="'Roboto-Regular'" font-size="12px">y</text>
				
					<text transform="matrix(1 0 0 1 231.2354 245.9141)" display="inline" fill="#231F20" font-family="'Roboto-Regular'" font-size="12px"> </text>
				
					<text transform="matrix(1 0 0 1 151.3516 260.314)" display="inline" fill="#231F20" font-family="'Roboto-Regular'" font-size="12px">m</text>
				
					<text transform="matrix(1 0 0 1 161.6289 260.314)" display="inline" fill="#231F20" font-family="'Roboto-Regular'" font-size="12px">e</text>
				
					<text transform="matrix(1 0 0 1 167.7461 260.314)" display="inline" fill="#231F20" font-family="'Roboto-Regular'" font-size="12px">m</text>
				
					<text transform="matrix(1 0 0 1 178.0244 260.314)" display="inline" fill="#231F20" font-family="'Roboto-Regular'" font-size="12px">b</text>
				
					<text transform="matrix(1 0 0 1 184.5166 260.314)" display="inline" fill="#231F20" font-family="'Roboto-Regular'" font-size="12px">e</text>
				
					<text transform="matrix(1 0 0 1 190.6338 260.314)" display="inline" fill="#231F20" font-family="'Roboto-Regular'" font-size="12px">r</text>
				
					<text transform="matrix(1 0 0 1 194.4541 260.314)" display="inline" fill="#231F20" font-family="'Roboto-Regular'" font-size="12px"> </text>
				
					<text transform="matrix(1 0 0 1 197.1855 260.314)" display="inline" fill="#231F20" font-family="'Roboto-Regular'" font-size="12px">t</text>
				
					<text transform="matrix(1 0 0 1 200.8652 260.314)" display="inline" fill="#231F20" font-family="'Roboto-Regular'" font-size="12px">e</text>
				
					<text transform="matrix(1 0 0 1 206.9824 260.314)" display="inline" fill="#231F20" font-family="'Roboto-Regular'" font-size="12px">s</text>
				
					<text transform="matrix(1 0 0 1 212.9297 260.314)" display="inline" fill="#231F20" font-family="'Roboto-Regular'" font-size="12px">t</text>
				
					<text transform="matrix(1 0 0 1 216.6104 260.314)" display="inline" fill="#231F20" font-family="'Roboto-Regular'" font-size="12px">s</text>
				
					<text transform="matrix(1 0 0 1 222.5576 260.314)" display="inline" fill="#231F20" font-family="'Roboto-Regular'" font-size="12px"> </text>
				
					<text transform="matrix(1 0 0 1 225.2881 260.314)" display="inline" fill="#231F20" font-family="'Roboto-Regular'" font-size="12px">n</text>
				
					<text transform="matrix(1 0 0 1 231.6689 260.314)" display="inline" fill="#231F20" font-family="'Roboto-Regular'" font-size="12px">e</text>
				
					<text transform="matrix(1 0 0 1 237.7871 260.314)" display="inline" fill="#231F20" font-family="'Roboto-Regular'" font-size="12px">g</text>
				
					<text transform="matrix(1 0 0 1 244.2793 260.314)" display="inline" fill="#231F20" font-family="'Roboto-Regular'" font-size="12px">a</text>
				
					<text transform="matrix(1 0 0 1 250.5664 260.314)" display="inline" fill="#231F20" font-family="'Roboto-Regular'" font-size="12px">t</text>
				
					<text transform="matrix(1 0 0 1 254.2461 260.314)" display="inline" fill="#231F20" font-family="'Roboto-Regular'" font-size="12px">i</text>
				
					<text transform="matrix(1 0 0 1 256.9189 260.314)" display="inline" fill="#231F20" font-family="'Roboto-Regular'" font-size="12px">v</text>
				
					<text transform="matrix(1 0 0 1 262.4912 260.314)" display="inline" fill="#231F20" font-family="'Roboto-Regular'" font-size="12px">e</text>
				
					<text transform="matrix(1 0 0 1 268.6084 260.314)" display="inline" fill="#231F20" font-family="'Roboto-Regular'" font-size="12px"> </text>
				
					<text transform="matrix(1 0 0 1 151.3516 274.7139)" display="inline" fill="#231F20" font-family="'Roboto-Regular'" font-size="12px">f</text>
				
					<text transform="matrix(1 0 0 1 155.2773 274.7139)" display="inline" fill="#231F20" font-family="'Roboto-Regular'" font-size="12px">o</text>
				
					<text transform="matrix(1 0 0 1 161.8809 274.7139)" display="inline" fill="#231F20" font-family="'Roboto-Regular'" font-size="12px">r</text>
				
					<text transform="matrix(1 0 0 1 165.7021 274.7139)" display="inline" fill="#231F20" font-family="'Roboto-Regular'" font-size="12px"> </text>
				
					<text transform="matrix(1 0 0 1 168.4326 274.7139)" display="inline" fill="#231F20" font-family="'Roboto-Regular'" font-size="12px">C</text>
				
					<text transform="matrix(1 0 0 1 176.0029 274.7139)" display="inline" fill="#231F20" font-family="'Roboto-Regular'" font-size="12px">O</text>
				
					<text transform="matrix(1 0 0 1 183.8838 274.7139)" display="inline" fill="#231F20" font-family="'Roboto-Regular'" font-size="12px">V</text>
				
					<text transform="matrix(1 0 0 1 191.2793 274.7139)" display="inline" fill="#231F20" font-family="'Roboto-Regular'" font-size="12px">I</text>
				
					<text transform="matrix(1 0 0 1 194.3027 274.7139)" display="inline" fill="#231F20" font-family="'Roboto-Regular'" font-size="12px">D</text>
				
					<text transform="matrix(1 0 0 1 201.9316 274.7139)" display="inline" fill="#231F20" font-family="'Roboto-Regular'" font-size="12px">-</text>
				
					<text transform="matrix(1 0 0 1 205.002 274.7139)" display="inline" fill="#231F20" font-family="'Roboto-Regular'" font-size="12px">1</text>
				
					<text transform="matrix(1 0 0 1 211.501 274.7139)" display="inline" fill="#231F20" font-family="'Roboto-Regular'" font-size="12px">9</text>
				
					<text transform="matrix(1 0 0 1 217.999 274.7139)" display="inline" fill="#231F20" font-family="'Roboto-Regular'" font-size="12px">.</text>
			</g>
		</g>
	</g>
</g>
<style>
#g-columbia-desktop-img rect, #g-columbia-desktop-img circle, #g-columbia-desktop-img path, #g-columbia-desktop-img line, #g-columbia-desktop-img polyline { vector-effect: non-scaling-stroke; }
</style>
</svg>

